<?xml version="1.0" encoding="UTF-8" standalone="no"?>
<!-- Created with Inkscape (http://www.inkscape.org/) -->

<svg
   width="210mm"
   height="297mm"
   viewBox="0 0 210 297"
   version="1.1"
   id="svg1"
   inkscape:version="1.3.2 (091e20e, 2023-11-25, custom)"
   sodipodi:docname="emprendimiento.svg"
   xml:space="preserve"
   inkscape:export-filename="emprendimiento.png"
   inkscape:export-xdpi="96"
   inkscape:export-ydpi="96"
   xmlns:inkscape="http://www.inkscape.org/namespaces/inkscape"
   xmlns:sodipodi="http://sodipodi.sourceforge.net/DTD/sodipodi-0.dtd"
   xmlns:xlink="http://www.w3.org/1999/xlink"
   xmlns="http://www.w3.org/2000/svg"
   xmlns:svg="http://www.w3.org/2000/svg"><sodipodi:namedview
     id="namedview1"
     pagecolor="#ffffff"
     bordercolor="#000000"
     borderopacity="0.25"
     inkscape:showpageshadow="2"
     inkscape:pageopacity="0.0"
     inkscape:pagecheckerboard="0"
     inkscape:deskcolor="#d1d1d1"
     inkscape:document-units="mm"
     inkscape:zoom="1.7733884"
     inkscape:cx="420.38168"
     inkscape:cy="790.8589"
     inkscape:window-width="1920"
     inkscape:window-height="1009"
     inkscape:window-x="-8"
     inkscape:window-y="-8"
     inkscape:window-maximized="1"
     inkscape:current-layer="layer1" /><defs
     id="defs1"><rect
       x="121.50275"
       y="444.58959"
       width="176.73127"
       height="60.751372"
       id="rect2" /><rect
       x="168.44699"
       y="306.51829"
       width="129.78702"
       height="66.274224"
       id="rect1" /><rect
       x="168.44699"
       y="306.51828"
       width="129.78702"
       height="66.274223"
       id="rect1-1" /><rect
       x="168.44699"
       y="306.51828"
       width="129.78702"
       height="66.274223"
       id="rect1-3" /></defs><g
     inkscape:label="Layer 1"
     inkscape:groupmode="layer"
     id="layer1"
     transform="matrix(0.9453476,0,0,0.9453476,2.5337278,13.298731)"><g
       id="g42"
       transform="matrix(1.0230989,0,0,1.0230989,-90.750851,-0.46111358)"><circle
         style="fill:#ff9dd0;fill-opacity:1;stroke-width:0.313539;stroke-linecap:round;stroke-linejoin:round;paint-order:stroke fill markers"
         id="path15"
         cx="176.38098"
         cy="195.85715"
         r="41.879654" /><g
         id="g22"
         transform="matrix(0.70619498,-0.49855993,0.49855993,0.70619498,84.17705,182.95332)"><path
           id="path12"
           style="opacity:1;fill:#ffcc49;fill-opacity:1;stroke-width:0.317344;stroke-linecap:round;stroke-linejoin:round;paint-order:stroke fill markers"
           d="m 109.3049,52.077461 c -2.85183,1.456418 -1.54048,8.235194 -2.07012,12.392317 -2.76929,9.724517 -12.405996,15.296356 -7.19815,26.909968 l 0.71829,-0.337276 C 98.395532,80.063 110.06041,69.716837 108.55546,64.236363 l 0.74944,-0.524228 0.86205,0.299012 c 2.10722,12.188707 9.27699,14.441354 7.6863,27.034056 l 0.8462,0.493615 c 5.02125,-12.10442 -5.49157,-18.441938 -7.30529,-27.565936 0.62071,-8.791793 -0.59747,-10.486121 -2.08926,-11.895421 z m 0.25802,4.520708 a 0.90019709,0.90019709 0 0 1 0.90031,0.899769 0.90019709,0.90019709 0 0 1 -0.90031,0.900315 0.90019709,0.90019709 0 0 1 -0.89977,-0.900315 0.90019709,0.90019709 0 0 1 0.89977,-0.899769 z m -0.0634,3.446015 a 0.90019709,0.90019709 0 0 1 0.90031,0.900316 0.90019709,0.90019709 0 0 1 -0.90031,0.900315 0.90019709,0.90019709 0 0 1 -0.90032,-0.900315 0.90019709,0.90019709 0 0 1 0.90032,-0.900316 z" /><path
           style="opacity:1;fill:none;stroke:#ffae42;stroke-width:0.317344;stroke-linecap:round;stroke-linejoin:round;stroke-opacity:1;paint-order:stroke fill markers"
           d="m 109.29244,52.233811 0.0456,4.22722 c 0.11889,-0.04242 -1.72715,0.657017 -0.22505,2.049802 2.84209,0.728003 1.69286,2.973987 2.13797,4.500984 1.74289,9.377306 12.31398,17.073083 7.42662,28.398751"
           id="path22"
           sodipodi:nodetypes="ccccc" /><path
           style="opacity:1;fill:#e89938;fill-opacity:1;stroke:none;stroke-width:0.317344;stroke-linecap:round;stroke-linejoin:round;stroke-opacity:1;paint-order:stroke fill markers"
           d="m 96.733482,60.918443 c 0.459305,1.53032 0.867197,3.266292 1.830362,2.78117 L 97.935,64.118844 c 0.975775,6.199393 -9.107506,14.363916 -7.79685,26.935528 l -0.685019,0.490484 c -6.706927,-11.324547 8.60382,-22.137871 7.280351,-30.626413 z"
           id="path28"
           sodipodi:nodetypes="cccccc"
           transform="translate(10.637962)" /></g><g
         id="g41"
         transform="matrix(0.47490896,-0.43540939,0.43540939,0.47490896,116.80894,193.8923)"><path
           style="opacity:1;fill:#bedef4;fill-opacity:1;stroke:none;stroke-width:0.317344;stroke-linecap:round;stroke-linejoin:round;stroke-opacity:1;paint-order:stroke fill markers"
           d="m 50.960099,23.799947 c 8.366719,-0.247369 52.410111,-0.09778 53.512591,0 5.74381,0.509447 4.58298,7.700909 -0.25543,7.535185 -6.606602,-0.226287 -37.692949,1.114666 -52.874017,-0.127715 -4.209968,-0.344533 -3.747605,-7.307997 -0.383144,-7.40747 z"
           id="path39"
           sodipodi:nodetypes="sssss" /><path
           style="opacity:1;fill:#7b9cb2;fill-opacity:1;stroke:none;stroke-width:0.317344;stroke-linecap:round;stroke-linejoin:round;stroke-opacity:1;paint-order:stroke fill markers"
           d="m 48.376175,27.759112 c 0.203234,1.145072 0.866059,2.307534 2.316777,2.408464 13.454684,0.936072 48.595647,0.225588 56.402508,0.190268 0.0191,0.475584 -1.12057,0.823761 -2.37905,0.873017 -10.399407,0.407024 -44.938289,1.034773 -53.756311,-0.151165 -2.375803,-0.319523 -2.583924,-3.084814 -2.583924,-3.320584 z"
           id="path40"
           sodipodi:nodetypes="cscssc" /></g><g
         id="g37"
         transform="matrix(0.31906773,0.37056452,-0.37056452,0.31906773,204.94253,157.47329)"><path
           style="opacity:1;fill:#cfe7f7;fill-opacity:1;stroke:none;stroke-width:0.317344;stroke-linecap:round;stroke-linejoin:round;stroke-opacity:1;paint-order:stroke fill markers"
           d="m 78.22034,97.709334 c 0.09047,1.795464 0.499487,4.019286 -0.842375,4.859856 l 0.259191,7.84059 h 2.851121 l 0.226794,-7.71099 c -1.262643,-1.80342 -0.589722,-3.307184 -0.777577,-4.95706 z"
           id="path35"
           sodipodi:nodetypes="ccccccc" /><path
           style="opacity:1;fill:#b7d6eb;fill-opacity:1;stroke:none;stroke-width:0.317344;stroke-linecap:round;stroke-linejoin:round;stroke-opacity:1;paint-order:stroke fill markers"
           d="m 78.090743,65.763822 0.388791,-4.730268 -1.036771,-1.295965 1.555156,-8.812555 1.749551,8.877353 -1.101569,1.166367 0.323991,4.795067 z"
           id="path34"
           sodipodi:nodetypes="cccccccc" /><path
           style="opacity:1;fill:#fac349;fill-opacity:1;stroke:none;stroke-width:0.317344;stroke-linecap:round;stroke-linejoin:round;stroke-opacity:1;paint-order:stroke fill markers"
           d="m 77.55218,65.365309 h 3.126311 v 32.454104 h -2.977438 z"
           id="path33" /><path
           style="opacity:1;fill:#709dbb;fill-opacity:1;stroke:none;stroke-width:0.317344;stroke-linecap:round;stroke-linejoin:round;stroke-opacity:1;paint-order:stroke fill markers"
           d="m 79.127517,51.022231 1.619953,8.618162 -0.907173,1.231164 0.129595,4.471077 h -0.388789 l -0.259193,-4.535875 1.036771,-1.360762 z"
           id="path36" /><path
           style="opacity:1;fill:#a8c8dd;fill-opacity:1;stroke:none;stroke-width:0.317344;stroke-linecap:round;stroke-linejoin:round;stroke-opacity:1;paint-order:stroke fill markers"
           d="m 80.099488,97.774132 c -0.16131,1.664416 -0.575607,3.360458 0.583185,4.859858 l -0.129596,7.71099 -2.915921,0.1296 0.0648,-0.45359 2.462329,-0.0648 0.194396,-7.3222 c -1.253179,-0.96945 -0.958154,-4.575147 -0.259193,-4.859858 z"
           id="path37"
           sodipodi:nodetypes="cccccccc" /><path
           style="opacity:1;fill:#e68f26;fill-opacity:1;stroke:none;stroke-width:0.317344;stroke-linecap:round;stroke-linejoin:round;stroke-opacity:1;paint-order:stroke fill markers"
           d="m 184.62371,142.37786 -0.0442,32.44452 0.47843,-0.0155 -0.0156,-32.46541 z"
           id="path38"
           sodipodi:nodetypes="ccccc"
           transform="translate(-104.45173,-77.012571)" /></g><g
         id="g32"
         transform="matrix(0.35068377,0.34562425,-0.34562425,0.35068377,168.98908,129.92925)"><path
           style="opacity:1;fill:#ee5990;fill-opacity:1;stroke:none;stroke-width:0.317344;stroke-linecap:round;stroke-linejoin:round;stroke-opacity:1;paint-order:stroke fill markers"
           d="m 52.946174,127.61018 c -2.608838,0.52994 -1.584312,3.25259 -0.733133,3.66566 -1.684941,1.22189 -0.595733,4.06786 0.824774,3.66566 0.780082,1.31323 0.931423,3.14493 -0.191061,3.99259 -1.954061,1.47563 -2.459175,3.85655 -1.275202,4.53007 1.676119,0.95348 4.764558,0.53121 5.773414,0.45204 2.180357,-0.1711 2.029877,-3.4044 -0.115558,-4.95939 -1.056362,-0.76564 -1.006368,-3.12625 -0.348815,-4.00299 l 4.863163,-0.0855 c 1.222432,2.42634 0.315102,2.98913 -0.195353,3.89918 -3.652035,3.53104 -0.81064,5.22668 0.933844,5.07552 0.818522,-0.0709 1.561313,0.14338 3.281409,0.0855 3.128111,-0.1053 2.292345,-3.93329 0.683078,-4.77025 -1.462634,-0.7607 -1.576906,-3.03163 -0.420481,-4.13129 l 4.606727,0.006 c 0.863942,1.07452 1.14244,2.86588 -0.111072,3.94956 -1.435271,1.24082 -3.435766,3.40918 0.111072,4.84802 0,0 2.427949,0.30468 3.567855,0.0855 3.754498,-0.722 2.572555,-2.99881 0.984069,-4.71839 -1.494241,-0.72772 -1.291523,-2.30392 -0.519699,-4.16467 h 4.948641 c 0.281323,1.01307 1.090855,1.56396 -0.341914,4.07686 -0.96222,1.35334 -3.747321,3.77407 0.427392,4.91633 l 4.142357,-0.17095 c 3.748287,-2.10934 0.769168,-3.40777 0.170957,-4.83086 -1.344414,-1.361 -1.390736,-2.72201 0,-4.08302 h 4.49043 c 0.587858,1.1875 1.190027,2.14846 -0.427392,3.99755 -1.241173,1.228 -2.926105,4.14887 0.427392,4.98331 0,0 2.761655,0.44338 4.029547,0 3.809673,-1.33225 1.510504,-3.43726 0.240925,-4.9784 -1.237751,-1.31888 -0.840277,-2.63776 -0.284066,-3.95664 2.224737,-0.3732 2.132761,-3.14312 0.733131,-3.66566 1.461599,-1.56514 1.224406,-3.29637 -0.733131,-3.57402 -0.679364,-0.85651 -0.994121,-2.75596 0.216297,-3.93308 1.667024,-1.62116 3.080884,-3.44795 0.189305,-5.17846 0,0 -3.844614,-0.88367 -5.225624,0.20992 -0.84205,0.66681 -2.496341,1.45166 0.82629,4.79152 0.585631,1.03061 1.204838,2.04684 0.23643,3.74347 l -5.040282,-0.0917 c -1.41,-1.92023 -0.630918,-2.93687 0.140986,-3.52187 2.805611,-2.12627 1.735536,-4.99952 -0.04935,-5.11091 -1.769683,-0.11045 -4.085305,-0.41085 -5.058772,0.30223 -2.260817,1.65608 -0.493462,4.07503 0.803985,4.77872 1.611354,0.87393 0.09394,3.7501 0.09394,3.7501 l -4.899335,-0.0123 c -0.853071,-1.54109 -0.780623,-2.27508 0.129991,-3.4118 1.118016,-1.39562 4.078459,-3.19147 0.322053,-5.35497 -1.312243,-0.75578 -4.402519,-0.52768 -5.858892,0.60447 -1.86573,1.45037 0.187242,3.11801 1.235217,4.57736 1.501739,2.09124 0.12708,3.90296 0.12708,3.90296 l -4.582076,-0.36656 c -1.636044,-1.23402 -0.877044,-2.46804 -0.06027,-3.70207 1.604662,-1.86219 3.003334,-3.70477 -0.08336,-5.12017 l -4.716854,0.006 c -3.013333,2.3017 -0.496136,3.96325 0.429587,4.90092 1.008046,1.02106 1.218317,2.73409 0.169566,3.91515 l -4.832347,-0.0185 c -1.020429,-1.37615 -0.487537,-2.5304 0.04986,-3.684 2.361898,-1.90153 3.046502,-3.66031 0.06912,-5.10742 -1.633379,-0.15791 -3.266757,-0.53473 -4.900135,0.17095 -1.070784,0.9892 -2.503866,1.79725 0.39156,4.76956 1.35949,1.35099 1.248099,2.70199 0.332733,4.05299 z"
           id="path29"
           sodipodi:nodetypes="cccsssscccsssccscscccccccccccsccccscscccssssccsssscccccscccccccc" /><path
           style="opacity:1;fill:#aa225a;fill-opacity:1;stroke:none;stroke-width:0.317344;stroke-linecap:round;stroke-linejoin:round;stroke-opacity:1;paint-order:stroke fill markers"
           d="m 55.958025,127.39932 1.02574,0.0855 c -0.907261,-1.30075 -0.642354,-3.27652 0.597722,-4.28751 1.549993,-1.12999 2.159674,-3.05375 0.387363,-4.24563 -0.585044,-0.39344 -1.144495,-0.19406 -1.721519,-0.42237 4.781866,2.75352 -2.835329,5.4261 -0.289306,8.87001 z"
           id="path30"
           sodipodi:nodetypes="ccsscc" /><path
           style="opacity:1;fill:#aa225a;fill-opacity:1;stroke:none;stroke-width:0.317344;stroke-linecap:round;stroke-linejoin:round;stroke-opacity:1;paint-order:stroke fill markers"
           d="m 64.930531,127.48502 1.288772,0.0329 c -0.730023,-1.13971 -1.3367,-2.12161 -0.473458,-3.26132 4.697866,-4.37912 0.67102,-5.7681 -0.769306,-5.73365 4.781866,2.75352 -2.592031,5.51817 -0.04601,8.96208 z"
           id="path30-0"
           sodipodi:nodetypes="cccccc" /><path
           style="opacity:1;fill:#aa225a;fill-opacity:1;stroke:none;stroke-width:0.317344;stroke-linecap:round;stroke-linejoin:round;stroke-opacity:1;paint-order:stroke fill markers"
           d="m 73.604346,127.31821 1.02574,0.0855 c -0.730023,-1.13971 -0.758029,-1.96379 0.105213,-3.1035 4.921571,-4.29673 0.376351,-5.77644 -1.032338,-5.99669 4.781866,2.75352 -2.644638,5.57078 -0.09861,9.01469 z"
           id="path30-6"
           sodipodi:nodetypes="cccccc" /><path
           style="opacity:1;fill:#aa225a;fill-opacity:1;stroke:none;stroke-width:0.317344;stroke-linecap:round;stroke-linejoin:round;stroke-opacity:1;paint-order:stroke fill markers"
           d="m 82.624529,127.30419 1.130953,0.13811 c -0.730023,-1.13971 -1.126274,-2.27943 -0.263032,-3.41914 4.63644,-4.1312 0.60701,-5.59311 -0.769306,-5.47062 4.781866,2.75352 -2.644638,5.30774 -0.09862,8.75165 z"
           id="path30-08"
           sodipodi:nodetypes="ccccc" /><path
           style="opacity:1;fill:#aa225a;fill-opacity:1;stroke:none;stroke-width:0.317344;stroke-linecap:round;stroke-linejoin:round;stroke-opacity:1;paint-order:stroke fill markers"
           d="m 91.356669,127.80437 1.236166,0.1381 c -0.730023,-1.13971 -1.073668,-2.54246 -0.210426,-3.68217 4.073717,-4.02019 2.097219,-5.62112 -0.664093,-5.73365 4.781866,2.75352 -2.90767,5.83381 -0.361647,9.27772 z"
           id="path30-9"
           sodipodi:nodetypes="ccccc" /><path
           style="opacity:1;fill:#aa225a;fill-opacity:1;stroke:none;stroke-width:0.317344;stroke-linecap:round;stroke-linejoin:round;stroke-opacity:1;paint-order:stroke fill markers"
           d="m 55.787068,134.92142 h 1.130954 c -1.061396,2.38372 1.098761,4.31967 1.834843,6.09528 0.596709,1.4394 -0.296017,3.4481 -2.965797,3.05092 5.301076,-3.34255 -2.186698,-4.74976 0,-9.1462 z"
           id="path31"
           sodipodi:nodetypes="ccscc" /><path
           style="opacity:1;fill:#aa225a;fill-opacity:1;stroke:none;stroke-width:0.317344;stroke-linecap:round;stroke-linejoin:round;stroke-opacity:1;paint-order:stroke fill markers"
           d="m 64.736001,134.88762 1.288773,0.0526 c -1.044321,2.34537 0.751939,3.95457 1.552973,5.60167 0.68679,1.41219 0.573495,3.78532 -2.841746,3.49192 5.301076,-3.34255 -2.186698,-4.74976 0,-9.1462 z"
           id="path31-6"
           sodipodi:nodetypes="ccsccc" /><path
           style="opacity:1;fill:#aa225a;fill-opacity:1;stroke:none;stroke-width:0.317344;stroke-linecap:round;stroke-linejoin:round;stroke-opacity:1;paint-order:stroke fill markers"
           d="m 73.470149,135.0034 h 1.236167 c -0.917105,2.05967 0.317838,3.4121 1.233208,4.95605 1.000908,1.68822 1.578562,3.50249 -2.469375,4.19015 5.301076,-3.34255 -2.186698,-4.74976 0,-9.1462 z"
           id="path31-7"
           sodipodi:nodetypes="ccscc" /><path
           style="opacity:1;fill:#aa225a;fill-opacity:1;stroke:none;stroke-width:0.317344;stroke-linecap:round;stroke-linejoin:round;stroke-opacity:1;paint-order:stroke fill markers"
           d="m 82.601396,134.93721 1.393986,-0.0526 c -3.000249,3.3515 6.311653,7.84289 -1.393986,9.19881 5.301076,-3.34255 -2.186698,-4.74976 0,-9.1462 z"
           id="path31-73"
           sodipodi:nodetypes="ccccc" /><path
           style="opacity:1;fill:#aa225a;fill-opacity:1;stroke:none;stroke-width:0.317344;stroke-linecap:round;stroke-linejoin:round;stroke-opacity:1;paint-order:stroke fill markers"
           d="m 91.320397,134.91792 h 1.236167 c -1.919911,4.3118 6.566373,7.93486 -1.183561,9.25141 5.301076,-3.34255 -2.239304,-4.85497 -0.05261,-9.25141 z"
           id="path31-0"
           sodipodi:nodetypes="cccc" /><path
           style="opacity:1;fill:#aa225a;fill-opacity:1;stroke:none;stroke-width:0.317344;stroke-linecap:round;stroke-linejoin:round;stroke-opacity:1;paint-order:stroke fill markers"
           d="m 92.056215,127.5308 c 1.203805,1.22519 1.238806,2.66081 0.401118,3.886 0.414642,0.91498 1.625279,1.72639 -0.322179,3.71505 3.163401,-0.46519 1.992316,-3.29861 1.176965,-3.886 2.478151,-3.45706 -0.605678,-3.22045 -1.255904,-3.71505 z"
           id="path32"
           sodipodi:nodetypes="ccccc" /></g><g
         id="g45"
         transform="matrix(-0.10886026,0.60686067,-0.60686067,-0.10886026,229.04264,177.59457)"><path
           style="opacity:1;fill:#e2343e;fill-opacity:1;stroke:none;stroke-width:0.317344;stroke-linecap:round;stroke-linejoin:round;stroke-opacity:1;paint-order:stroke fill markers"
           d="m 85.674134,95.174913 0.430113,7.615397 -1.746649,1.70372 0.326767,5.37749 c 0,0 0.866267,1.12463 2.125455,1.00724 0.651368,-0.0607 1.78122,-0.77435 1.78122,-0.77435 0.329346,-1.22341 0.375224,-3.29724 0.292564,-5.75667 l -1.566162,-1.59164 0.413378,-7.597921 z"
           id="path43"
           sodipodi:nodetypes="ccccsccccc" /><path
           style="opacity:0.66482;fill:#b50712;fill-opacity:1;stroke:none;stroke-width:0.317344;stroke-linecap:round;stroke-linejoin:round;stroke-opacity:1;paint-order:stroke fill markers"
           d="m 86.686912,110.87589 c 0,0 -0.354822,-5.36999 -0.05167,-6.35568 0.223302,-0.72606 1.760758,-0.74045 2.273578,-0.15502 -0.08606,1.91187 0.254381,3.82375 -0.258362,5.73562 -0.643157,0.26972 -1.075565,0.75019 -1.963546,0.77508 z"
           id="path45"
           sodipodi:nodetypes="csccc" /><path
           style="opacity:1;fill:#e1323c;fill-opacity:1;stroke:none;stroke-width:0.317344;stroke-linecap:round;stroke-linejoin:round;stroke-opacity:1;paint-order:stroke fill markers"
           d="m 85.772746,65.351582 c 0.02364,-2.061563 1.105686,-5.576828 -0.671005,-6.609629 l -0.08588,-6.763175 3.373222,-0.0087 -0.0087,6.591427 c -1.450715,0.986616 -0.974884,4.233119 -0.679736,6.428409 z"
           id="path44"
           sodipodi:nodetypes="ccccccc" /><rect
           style="opacity:1;fill:#fce5e5;fill-opacity:1;stroke:none;stroke-width:0.317344;stroke-linecap:round;stroke-linejoin:round;stroke-opacity:1;paint-order:stroke fill markers"
           id="rect44"
           width="3.3586948"
           height="0.82675564"
           x="84.981735"
           y="51.943714" /><path
           style="opacity:1;fill:#ffd5d4;fill-opacity:1;stroke:none;stroke-width:0.317344;stroke-linecap:round;stroke-linejoin:round;stroke-opacity:1;paint-order:stroke fill markers"
           d="m 85.368837,64.275202 -0.09061,31.4419 2.882703,-0.146282 0.06041,-31.226477 z"
           id="path42"
           sodipodi:nodetypes="ccccc" /><rect
           style="opacity:1;fill:#fe737a;fill-opacity:1;stroke:none;stroke-width:0.437881;stroke-linecap:round;stroke-linejoin:round;stroke-opacity:1;paint-order:stroke fill markers"
           id="rect45"
           width="0.41337782"
           height="31.235863"
           x="87.746193"
           y="64.319214" /></g></g><g
       id="g13"><g
         id="g12"
         transform="matrix(1.7186968,0,0,1.7186968,-67.572033,-151.47246)"><g
           id="g16"
           style="stroke-width:0.3846708;stroke-dasharray:none"><path
             style="opacity:1;fill:#ffe3d2;fill-opacity:1;stroke:none;stroke-width:0.3846708;stroke-linecap:round;stroke-linejoin:round;stroke-dasharray:none;stroke-opacity:1;paint-order:stroke fill markers"
             d="m 69.101137,215.72902 3.304988,-2.95764 c 0.338044,-1.76754 1.577624,-3.7756 2.977136,-6.00781 1.485142,-2.36878 3.171044,-4.97345 4.890616,-7.21914 0.682632,-0.89149 1.396499,-0.1748 1.140252,0.57013 -1.184456,1.84162 -2.452775,3.72517 -2.964658,5.23051 1.582914,-1.60174 4.758556,-6.93019 4.790195,-6.97852 0.455933,-0.69643 1.943476,-0.84131 1.140254,0.68416 -1.204192,2.28698 -2.687626,4.88538 -3.535917,6.72749 0.996701,-0.13253 3.055182,-4.8712 4.904223,-7.06957 0.714374,-0.84934 1.642206,-0.88369 1.253149,0.72178 -1.35603,2.4573 -3.397026,5.20437 -4.142547,7.55992 1.495023,-2.02576 0.6224,-0.76897 4.070672,-5.77654 1.335968,-1.94009 1.254775,0.0285 1.098104,0.3831 -1.925902,4.35917 -5.954716,10.33933 -6.046735,11.62947 -0.08975,1.25838 3.89594,-0.48259 5.061526,0.11854 1.725317,0.88981 -1.427746,1.63081 -3.823573,2.56171 -1.858975,0.72231 -4.262778,0.39439 -6.137657,0.021 l -4.053564,5.6497 z"
             id="path1"
             sodipodi:nodetypes="ccssccsscsccsssssccc" /><path
             style="opacity:1;fill:#ffccdd;fill-opacity:1;stroke:none;stroke-width:0.3846708;stroke-linecap:round;stroke-linejoin:round;stroke-dasharray:none;stroke-opacity:1;paint-order:stroke fill markers"
             d="m 86.025973,214.2172 c -0.09206,0.14048 0.076,0.5504 0.076,0.5504 1.284477,-0.22108 1.862202,-1.23697 1.703315,-1.24758 -0.640361,-0.0427 -1.471965,0.22818 -1.779315,0.69718 z"
             id="path4"
             sodipodi:nodetypes="scss" /><path
             style="opacity:1;fill:#ff2e77;fill-opacity:0.98730201;stroke:none;stroke-width:0.3846708;stroke-linecap:round;stroke-linejoin:round;stroke-dasharray:none;stroke-opacity:1;paint-order:stroke fill markers"
             d="m 80.349881,199.80173 c -0.07886,0.13242 0.19119,0.71063 0.65525,0.4257 0.29692,-0.18235 0.55696,-0.88459 0.55696,-0.88459 0.267142,-0.41099 -0.478239,-0.77349 -0.753536,-0.31125 z"
             id="path3"
             sodipodi:nodetypes="sasss"
             inkscape:label="path3" /><path
             style="stroke-width:0.3846708;stroke-dasharray:none;opacity:1;fill:#ff2e73;fill-opacity:1;stroke:none;stroke-linecap:round;stroke-linejoin:round;stroke-opacity:1;paint-order:stroke fill markers"
             d="m 85.926604,198.88481 c -0.147846,0.21729 0.322422,0.74691 0.720775,0.40931 0.26762,-0.22681 0.850928,-1.03208 0.737154,-1.44154 -0.06604,-0.23768 -0.540389,-0.47661 -0.819061,-0.0164 -0.212956,0.35171 -0.425912,0.73561 -0.638868,1.04859 z"
             id="path3-8-8"
             sodipodi:nodetypes="sssss" /><path
             style="opacity:1;fill:#ff2e77;fill-opacity:1;stroke:none;stroke-width:0.3846708;stroke-linecap:round;stroke-linejoin:round;stroke-dasharray:none;stroke-opacity:1;paint-order:stroke fill markers"
             d="m 83.392595,198.49321 c -0.136745,0.22444 0.322422,0.74691 0.720775,0.40931 0.26762,-0.22681 0.769022,-0.98294 0.655248,-1.3924 -0.06604,-0.23768 -0.457235,-0.52499 -0.737155,-0.0655 z"
             id="path3-8"
             sodipodi:nodetypes="sssss" /><path
             style="opacity:1;fill:#ff6b9d;fill-opacity:1;stroke:none;stroke-width:0.3846708;stroke-linecap:round;stroke-linejoin:round;stroke-dasharray:none;stroke-opacity:1;paint-order:stroke fill markers"
             d="m 86.98492,201.38456 c -0.147846,0.21729 0.322422,0.74691 0.720775,0.40931 0.26762,-0.22681 0.850928,-1.03208 0.737154,-1.44154 -0.06604,-0.23768 -0.540389,-0.47661 -0.819061,-0.0164 -0.212956,0.35171 -0.425912,0.73561 -0.638868,1.04859 z"
             id="path3-8-8-7"
             sodipodi:nodetypes="sssss" /></g><g
           id="g15"><path
             style="opacity:1;fill:#ffe3d2;fill-opacity:1;stroke:none;stroke-width:0.499999;stroke-linecap:round;stroke-linejoin:round;stroke-dasharray:none;stroke-opacity:1;paint-order:stroke fill markers"
             d="m 110.1688,221.56387 c -5.702,-9.12949 -2.69167,-4.31417 -4.54726,-6.39191 -6.493324,-1.50455 -7.227161,-3.89703 -9.117682,-6.05912 2.129056,-1.05854 2.774947,1.75936 5.188802,1.78289 -0.14364,-1.2313 0.957,-1.51906 1.44059,-3.31961 -0.64903,-1.11051 -1.13721,-2.20315 -2.93081,-3.44084 -1.228142,1.04583 -2.709538,2.91323 -3.815822,2.13121 0.637862,-1.39741 2.015741,-3.47377 3.472557,-4.45273 0.468665,-0.31494 1.454405,0.57347 1.454405,0.57347 l -0.93055,-1.35925 c -2.99416,-0.71142 -3.883491,-1.74108 -3.97851,-3.1114 l 3.061765,1.21244 c -0.336563,-0.4802 -0.678888,-0.78662 -0.424609,-1.46339 0,0 2.212064,0.92481 4.430754,2.76893 0.19643,0.16327 0.79312,1.69742 1.23981,2.69544 0.29652,0.66249 0.57502,1.30441 0.77834,1.36849 1.30999,2.9466 2.28209,5.94952 4.32177,8.77451 l 3.63952,4.15181 z"
             id="path5"
             sodipodi:nodetypes="cccccccscccccsscccc" /><path
             style="opacity:1;fill:#ff2c74;fill-opacity:1;stroke:none;stroke-width:0.499999;stroke-linecap:round;stroke-linejoin:round;stroke-dasharray:none;stroke-opacity:1;paint-order:stroke fill markers"
             d="m 97.698284,198.74465 c -0.443569,-0.0607 -1.988113,-0.82104 -1.72755,-1.00901 0.173852,-0.12542 1.512151,0.23754 1.819278,0.68796 0.0627,0.092 0.01854,0.33614 -0.09173,0.32105 z"
             id="path8"
             sodipodi:nodetypes="ssss" /><path
             style="opacity:1;fill:#ff2c74;fill-opacity:1;stroke:none;stroke-width:0.499999;stroke-linecap:round;stroke-linejoin:round;stroke-dasharray:none;stroke-opacity:1;paint-order:stroke fill markers"
             d="m 97.49171,204.98915 c -0.324138,0.53863 -0.87495,1.45179 -1.111747,1.42532 -0.374202,-0.0418 0.31754,-1.14585 0.826685,-1.59636 0.09197,-0.0814 0.418337,-0.0504 0.285062,0.17104 z"
             id="path7"
             sodipodi:nodetypes="ssss" /><path
             style="opacity:1;fill:#ff2c74;fill-opacity:1;stroke:none;stroke-width:0.499999;stroke-linecap:round;stroke-linejoin:round;stroke-dasharray:none;stroke-opacity:1;paint-order:stroke fill markers"
             d="m 97.477457,210.37685 c -0.188352,-0.0287 -1.117263,-1.13432 -1.026229,-1.62486 0.08759,-0.47198 1.242407,0.71218 1.396812,1.14025 0.069,0.19129 -0.169543,0.51521 -0.370583,0.48461 z"
             id="path6"
             sodipodi:nodetypes="ssss" /><path
             style="opacity:1;fill:#ff2c74;fill-opacity:1;stroke:none;stroke-width:0.499999;stroke-linecap:round;stroke-linejoin:round;stroke-dasharray:none;stroke-opacity:1;paint-order:stroke fill markers"
             d="m 99.998503,198.50967 c -0.38439,0 -1.220482,-0.75819 -1.116028,-0.88671 0.0961,-0.11823 0.692505,0.20444 1.207755,0.56566 0.0912,0.0639 0.0185,0.33614 -0.0917,0.32105 z"
             id="path8-5"
             sodipodi:nodetypes="sssss" /></g><g
           id="g14"><path
             style="opacity:1;fill:#ff2e79;fill-opacity:1;stroke:none;stroke-width:0.499999;stroke-linecap:round;stroke-linejoin:round;stroke-dasharray:none;stroke-opacity:1;paint-order:stroke fill markers"
             d="m 89.51914,205.04267 -1.920605,-0.45163 0.752728,-1.69363 1.558373,0.97032 z"
             id="path11"
             sodipodi:nodetypes="ccccc" /><path
             style="opacity:1;fill:#ffb1d6;fill-opacity:1;stroke:none;stroke-width:0.499999;stroke-linecap:round;stroke-linejoin:round;stroke-dasharray:none;stroke-opacity:1;paint-order:stroke fill markers"
             d="m 94.918799,207.18794 -4.59163,-2.07 c -0.111501,0.11385 -0.627974,-0.0423 -1.016182,-0.1129 -0.189051,-0.97241 0.245388,-0.94724 0.52691,-1.16673 0.434389,0.23871 0.802294,0.46265 0.790363,0.60218 l 4.666903,2.07 z"
             id="path10"
             sodipodi:nodetypes="ccccccc" /><path
             style="opacity:1;fill:#ff2974;fill-opacity:1;stroke:none;stroke-width:0.499999;stroke-linecap:round;stroke-linejoin:round;stroke-dasharray:none;stroke-opacity:1;paint-order:stroke fill markers"
             d="m 100.11261,210.27412 0.97854,-2.14527 -5.683079,-2.52163 -0.940908,2.1829 z"
             id="path9" /></g></g><circle
         style="fill:none;stroke:#ff3d7e;stroke-width:3.06765469;stroke-linecap:round;stroke-linejoin:round;stroke-dasharray:none;stroke-opacity:1;paint-order:stroke fill markers;fill-opacity:1"
         id="path2"
         cx="90.232475"
         cy="199.46126"
         r="42.741699" /><g
         id="g18"><text
           xml:space="preserve"
           id="text1-0"
           style="font-size:45.3543px;font-family:'Bauhaus 93';-inkscape-font-specification:'Bauhaus 93, ';white-space:pre;shape-inside:url(#rect1-3);display:inline;fill:#ffffff;stroke:#000000;stroke-width:6.27402;stroke-linecap:round;stroke-linejoin:round;stroke-opacity:1;paint-order:stroke fill markers"
           transform="matrix(0.26458333,0,0,0.26458333,67.806322,8.6949818)" /><text
           xml:space="preserve"
           id="text1-7"
           style="font-size:45.3543px;font-family:'Bauhaus 93';-inkscape-font-specification:'Bauhaus 93, ';white-space:pre;shape-inside:url(#rect1-1);display:inline;fill:#ffffff;stroke:#ffffff;stroke-width:6.27402;stroke-linecap:round;stroke-linejoin:round;paint-order:stroke fill markers"
           transform="matrix(0.26458333,0,0,0.26458333,67.806323,1.5512318)"><tspan
             x="168.44727"
             y="414.48351"
             id="tspan5"><tspan
               dx="0 13.796743 25.334627 16.542809 25.135315 15.612686 13.154526 24.515244"
               id="tspan2">Josefina</tspan></tspan></text><text
           xml:space="preserve"
           id="text1"
           style="font-size:13.7282px;font-family:'Bauhaus 93';-inkscape-font-specification:'Bauhaus 93, ';white-space:pre;fill:#ffffff;fill-opacity:1;stroke:#ff6197;stroke-width:2.09477;stroke-linecap:round;stroke-linejoin:round;stroke-dasharray:none;stroke-opacity:1;paint-order:stroke fill markers"
           transform="rotate(1.3541575)"
           x="67.744949"
           y="178.71434"><tspan
             id="tspan1"
             style="fill:#ffffff;fill-opacity:1;stroke:#ff6197;stroke-width:2.09477;stroke-dasharray:none;stroke-opacity:1">Nails</tspan></text></g><g
         id="g17"
         transform="translate(-0.75228705,-27.985078)"><path
           style="opacity:0;fill:none;fill-opacity:1;stroke:#fcb3cb;stroke-width:0.4;stroke-linecap:round;stroke-linejoin:round;stroke-dasharray:none;stroke-opacity:1;paint-order:stroke fill markers"
           d="m 67.555377,262.24726 c 16.049183,10.61186 32.492723,7.8777 46.942713,-0.30091"
           id="path17"
           sodipodi:nodetypes="cc" /><text
           xml:space="preserve"
           style="font-size:12px;font-family:'Bauhaus 93';-inkscape-font-specification:'Bauhaus 93, ';fill:#ffffff;fill-opacity:1;stroke:#fe4d88;stroke-width:2.25948635;stroke-linecap:round;stroke-linejoin:round;stroke-dasharray:none;stroke-opacity:1;paint-order:stroke fill markers"
           id="text4"><textPath
             xlink:href="#path17"
             id="textPath17"><tspan
               id="tspan4"
               style="fill:#ffffff;fill-opacity:1;stroke:#fe4d88;stroke-width:2.25948635;stroke-dasharray:none;stroke-opacity:1">Josefina</tspan></textPath></text></g></g><g
       id="g1"><path
         style="opacity:1;fill:#fbb2cb;fill-opacity:1;stroke:#fcb3cb;stroke-width:0.4;stroke-linecap:round;stroke-linejoin:round;stroke-dasharray:none;stroke-opacity:1;paint-order:stroke fill markers"
         d="m 91.256082,236.26224 1.933942,-0.17397 -0.07003,-0.854 -1.967857,0.17397 z"
         id="path27"
         sodipodi:nodetypes="ccccc" /><circle
         style="opacity:1;fill:#fbb2cb;fill-opacity:1;stroke:#fcb3cb;stroke-width:0.4463;stroke-linecap:round;stroke-linejoin:round;stroke-dasharray:none;stroke-opacity:1;paint-order:stroke fill markers"
         id="path26"
         cx="92.00605"
         cy="233.71629"
         r="0.952851" /><path
         style="opacity:1;fill:#fbb2cb;fill-opacity:1;stroke:#fcb3cb;stroke-width:0.4;stroke-linecap:round;stroke-linejoin:round;stroke-dasharray:none;stroke-opacity:1;paint-order:stroke fill markers"
         d="m 104.79683,233.28758 -4.84269,2.00996 c 0,0 0.26306,-0.66983 0.5638,-1.44029 0.47469,-1.21609 3.00573,-1.35278 4.27889,-0.56967 z"
         id="path25"
         sodipodi:nodetypes="ccsc" /><path
         style="opacity:1;fill:#fbb2cb;fill-opacity:1;stroke:#fcb3cb;stroke-width:0.4;stroke-linecap:round;stroke-linejoin:round;stroke-dasharray:none;stroke-opacity:1;paint-order:stroke fill markers"
         d="m 94.356384,236.193 4.362173,-1.00714 c 0.115116,-0.23023 -2.045113,-1.05642 -3.234566,-0.28155 -0.478259,0.31156 -1.127607,1.28869 -1.127607,1.28869 z"
         id="path24"
         sodipodi:nodetypes="ccsc" /><path
         style="opacity:1;fill:#fbb2cb;fill-opacity:1;stroke:#fcb3cb;stroke-width:0.4;stroke-linecap:round;stroke-linejoin:round;stroke-dasharray:none;stroke-opacity:1;paint-order:stroke fill markers"
         d="m 90.49031,235.30123 0.0055,-2.00227 c -1.599578,-0.35767 -2.664769,1.12947 -2.865985,2.17389 z"
         id="path23"
         sodipodi:nodetypes="cccc" /><path
         style="opacity:1;fill:#fbb2cb;fill-opacity:1;stroke:#fcb3cb;stroke-width:0.4;stroke-linecap:round;stroke-linejoin:round;stroke-dasharray:none;stroke-opacity:1;paint-order:stroke fill markers"
         d="m 72.932255,232.21089 4.208354,2.25448 c 0.137786,-0.0689 -0.77308,-2.0442 -1.953879,-2.32963 -0.73086,-0.17667 -2.254475,0.0752 -2.254475,0.0752 z"
         id="path21"
         sodipodi:nodetypes="ccsc" /><path
         style="opacity:1;fill:#fbb2cb;fill-opacity:1;stroke:#fcb3cb;stroke-width:0.4;stroke-linecap:round;stroke-linejoin:round;stroke-dasharray:none;stroke-opacity:1;paint-order:stroke fill markers"
         d="m 71.57957,228.00254 1.953879,1.12723 -0.82664,1.20239 -1.908487,-1.04885 z"
         id="path20"
         sodipodi:nodetypes="ccccc" /><path
         style="opacity:1;fill:#fbb2cb;fill-opacity:1;stroke:#fcb3cb;stroke-width:0.4;stroke-linecap:round;stroke-linejoin:round;stroke-dasharray:none;stroke-opacity:1;paint-order:stroke fill markers"
         d="m 78.622484,235.33159 2.501029,1.05007 0.526045,-1.65327 c -1.038566,-0.56685 -2.860393,-0.0531 -3.027074,0.6032 z"
         id="path19"
         sodipodi:nodetypes="cccc" /><path
         style="opacity:1;fill:#fbb2cb;fill-opacity:1;stroke:#fcb3cb;stroke-width:0.4;stroke-linecap:round;stroke-linejoin:round;stroke-dasharray:none;stroke-opacity:1;paint-order:stroke fill markers"
         d="m 81.799855,235.93077 5.024508,1.05802 c 0.53686,-0.2906 -1.658855,-2.50171 -3.371225,-2.1101 -0.636776,0.14563 -1.653283,1.05208 -1.653283,1.05208 z"
         id="path18"
         sodipodi:nodetypes="ccsc" /></g><g
       id="g19"><path
         style="opacity:1;fill:none;fill-opacity:1;stroke:#fcb0ca;stroke-width:0.317344;stroke-linecap:round;stroke-linejoin:round;stroke-dasharray:none;stroke-opacity:1;paint-order:stroke fill markers"
         d="m 102.95476,190.48955 4.13098,2.36056 2.9507,4.72112"
         id="path13"
         sodipodi:nodetypes="ccc" /></g><path
       style="opacity:1;fill:none;fill-opacity:1;stroke:#fcb0ca;stroke-width:0.317344;stroke-linecap:round;stroke-linejoin:round;stroke-dasharray:none;stroke-opacity:1;paint-order:stroke fill markers"
       d="m 105.6104,195.28444 3.68836,4.72111"
       id="path14"
       sodipodi:nodetypes="cc"
       inkscape:label="path14" /></g></svg>
