<?xml version="1.0" encoding="UTF-8" standalone="no"?>
<!-- Created with Inkscape (http://www.inkscape.org/) -->

<svg
   width="123.08819mm"
   height="123.08819mm"
   viewBox="0 0 123.08819 123.08819"
   version="1.1"
   id="svg1"
   xml:space="preserve"
   inkscape:version="1.3.2 (091e20e, 2023-11-25, custom)"
   sodipodi:docname="emprendimiento_gallo.svg"
   inkscape:export-filename="emprendimiento_gallo.jpg"
   inkscape:export-xdpi="96"
   inkscape:export-ydpi="96"
   xmlns:inkscape="http://www.inkscape.org/namespaces/inkscape"
   xmlns:sodipodi="http://sodipodi.sourceforge.net/DTD/sodipodi-0.dtd"
   xmlns:xlink="http://www.w3.org/1999/xlink"
   xmlns="http://www.w3.org/2000/svg"
   xmlns:svg="http://www.w3.org/2000/svg"><sodipodi:namedview
     id="namedview1"
     pagecolor="#ffffff"
     bordercolor="#000000"
     borderopacity="0.25"
     inkscape:showpageshadow="2"
     inkscape:pageopacity="0.0"
     inkscape:pagecheckerboard="0"
     inkscape:deskcolor="#d1d1d1"
     inkscape:document-units="mm"
     inkscape:zoom="1.1569609"
     inkscape:cx="157.30869"
     inkscape:cy="211.76169"
     inkscape:window-width="1394"
     inkscape:window-height="1000"
     inkscape:window-x="-7"
     inkscape:window-y="0"
     inkscape:window-maximized="0"
     inkscape:current-layer="layer1" /><defs
     id="defs1"><linearGradient
       id="linearGradient10"
       inkscape:collect="always"><stop
         style="stop-color:#000000;stop-opacity:1;"
         offset="0"
         id="stop11" /><stop
         style="stop-color:#000000;stop-opacity:0;"
         offset="1"
         id="stop12" /></linearGradient><radialGradient
       inkscape:collect="always"
       xlink:href="#linearGradient10"
       id="radialGradient12"
       cx="104.96789"
       cy="140.64325"
       fx="104.96789"
       fy="140.64325"
       r="52.369602"
       gradientUnits="userSpaceOnUse" /><filter
       inkscape:collect="always"
       style="color-interpolation-filters:sRGB"
       id="filter21"
       x="-8.736873e-06"
       y="-4.7806692e-05"
       width="1.0000175"
       height="1.0000956"><feGaussianBlur
         inkscape:collect="always"
         stdDeviation="0.00022098146"
         id="feGaussianBlur21" /></filter><filter
       inkscape:collect="always"
       style="color-interpolation-filters:sRGB"
       id="filter22"
       x="-0.53962631"
       y="-0.53962631"
       width="2.0792526"
       height="2.0792526"><feGaussianBlur
         inkscape:collect="always"
         stdDeviation="23.550012"
         id="feGaussianBlur22" /></filter></defs><g
     inkscape:label="Layer 1"
     inkscape:groupmode="layer"
     id="layer1"
     transform="translate(-43.423789,-79.099151)"><circle
       style="opacity:0.96;fill:#000000;fill-opacity:1;stroke:none;stroke-width:0.132;stroke-linecap:round;stroke-linejoin:round;stroke-dasharray:none;paint-order:stroke fill markers"
       id="path3"
       cx="104.51051"
       cy="133.32524"
       r="33.617165" /><g
       id="g3"
       style="opacity:1"
       transform="translate(0.45737644,-3.4303233)"><g
         id="g4"
         transform="translate(6.3703467,6.2054085)"><path
           style="opacity:1;fill:#ffffff;fill-opacity:1;stroke:none;stroke-width:0.132;stroke-linecap:round;stroke-linejoin:round;stroke-dasharray:none;paint-order:stroke fill markers"
           d="m 88.753763,140.23065 -3.506605,-1.68317 c 0.257691,0.64423 -3.105682,2.66291 -4.768982,1.40264 -1.301796,-0.98636 2.799412,-2.06423 3.263281,-2.14154 l -2.000904,-1.2248 c 0,0 -4.558609,2.18188 -5.049512,0.56106 -0.349964,-1.15548 3.216777,-1.66458 3.216777,-1.66458 0,0 -3.693823,-2.52261 -5.227352,-3.85261 -0.402253,-0.34886 -0.453149,-2.5067 1.262377,-1.13141 1.760745,1.41153 4.379492,4.63809 4.395069,4.54463 0.617544,0 -2.583424,-2.79764 -0.121662,-4.27377 1.18079,-0.70804 2.675845,4.00082 1.945096,5.05918 -0.457565,0.66269 1.963698,1.42124 1.963698,1.42124 -0.156459,-0.0782 -1.817659,-3.5565 -0.02847,-3.91998 2.14153,-0.43506 1.376021,4.31273 1.720945,4.612 1.62088,1.40635 4.431102,1.0304 3.425123,2.08428 -0.394861,0.41366 -0.488878,0.20683 -0.488878,0.20683 z"
           id="path1"
           sodipodi:nodetypes="ccsccacsscsscsssc" /><path
           style="opacity:1;fill:#ffffff;fill-opacity:1;stroke:none;stroke-width:0.132;stroke-linecap:round;stroke-linejoin:round;stroke-dasharray:none;paint-order:stroke fill markers"
           d="m 111.10951,139.83457 c -0.25769,0.64423 3.7374,2.45234 5.4007,1.19207 1.3018,-0.98636 -3.43113,-1.85366 -3.895,-1.93097 l 2.00091,-1.2248 c 0,0 5.23385,1.92641 5.54085,0.10482 0.21604,-1.28193 -3.70812,-1.20834 -3.70812,-1.20834 -0.46887,0 3.42601,-2.52261 5.22735,-3.85261 0.42836,-0.31627 0.005,-2.51435 -1.61332,-1.02612 -1.53512,1.41153 -3.69698,4.5328 -4.04412,4.43934 -0.61755,0 2.58342,-2.79764 0.12166,-4.27377 -1.18079,-0.70804 -2.67584,4.00082 -1.9451,5.05918 0.45757,0.66269 -1.96369,1.42124 -1.96369,1.42124 0.38085,-0.0782 1.96407,-3.5565 0.0285,-3.91998 -2.14773,-0.40332 -1.06016,4.34783 -1.40509,4.6471 -1.62088,1.40635 -4.08172,1.05889 -3.35493,2.04918 0.58206,0.79309 3.6094,-1.47634 3.6094,-1.47634 z"
           id="path1-9"
           sodipodi:nodetypes="csccacsscsscsssc" /><path
           style="opacity:1;fill:#ffffff;fill-opacity:1;stroke:none;stroke-width:0.132;stroke-linecap:round;stroke-linejoin:round;stroke-dasharray:none;paint-order:stroke fill markers"
           d="m 92.964812,114.44564 0.841946,-0.59252 c 0,0 0.49986,-0.93124 0.239907,-1.27814 -0.160435,-0.21409 -0.798663,-0.0794 -0.798663,-0.0794 0,0 -0.05264,-0.54281 -0.213251,-0.74518 -0.11352,-0.14304 -0.478701,-0.26639 -0.478701,-0.26639 l -0.158995,0.90554 c 0,0 -0.31755,-0.67883 -0.240077,-1.09256 0.0376,-0.20079 -0.35629,-0.0849 -0.425645,0.10727 -0.199272,0.55208 -0.213334,1.11785 -0.213334,1.11785 0,0 -0.272847,-0.28528 -0.452814,-0.34619 -0.06706,-0.0227 -0.155866,-0.0426 -0.212397,0 -0.206316,0.15556 -0.213251,0.74526 -0.213251,0.74526 -0.68861,-0.61928 -0.806448,-0.34114 -0.798061,-0.31938 0.08297,0.21526 0.159422,0.71861 0.159422,0.71861 0,0 -0.757239,-0.22923 -0.665809,-0.0268 0.09795,0.21686 0.240081,0.90512 0.240081,0.90512 0,0 -0.584994,-0.30785 -0.425645,-0.0533 0.376572,0.60155 -3.44e-4,2.12908 -3.44e-4,2.12908 l -0.345675,0.57268 -0.213334,0.38559 c 0.230765,-0.0307 0.541499,-0.0841 0.79892,-0.1596 l 0.133025,0.58524 c 0,0 -0.212468,0.45474 -0.18608,0.69221 0.02715,0.24432 0.118403,0.55314 0.343127,0.65278 0.31065,0.13774 0.987204,-0.25436 0.987204,-0.25436 0,0 -2.869905,4.1238 -3.326562,6.52078 -0.184459,0.96822 -0.254532,2.11614 0.281127,2.94351 2.327956,3.59574 8.658955,8.99537 8.658955,8.99537 l 0.780318,0.17675 c -0.365873,1.39061 -0.04384,3.19346 -1.097619,4.17185 -0.357028,0.33149 -1.437129,0.26613 -1.437129,0.26613 l -0.906924,0.32246 -0.09878,0.63498 c 0.451839,0.005 0.843103,-0.23163 1.378294,0.10711 l 0.266136,0.15968 3.087173,-0.10646 0.37155,-0.3886 0.14369,-0.14572 0.86868,0.002 0.001,-0.63666 -0.69299,-0.002 0.19173,-1.80972 c 0.67212,-1.65187 1.040853,-3.36442 1.245403,-5.1098 0,0 1.19627,-1.96204 2.1557,-2.50167 0.18813,-0.10581 0.44159,-0.19436 0.63872,-0.10645 0.21128,0.0942 0.37259,0.58549 0.37259,0.58549 0,0 0.83308,0.19537 1.171,0 0.58489,-0.33815 1.01131,-1.75649 1.01131,-1.75649 0,0 0.14381,1.46597 0.6643,1.41986 0.3782,-0.0335 0.29379,-1.10051 0.29379,-1.10051 0,0 0.74155,0.3117 1.01131,0.10645 0.0859,-0.0653 0.0532,-0.31936 0.0532,-0.31936 0,0 0.44514,0.083 0.57387,-0.0599 0.17664,-0.19607 -1.3e-4,-0.79172 -1.3e-4,-0.79172 0.49589,-0.0657 0.23771,-0.7316 0.54405,-0.90486 0.4633,-0.26203 1.22044,0.37637 1.59681,0 0.11291,-0.11291 0,-0.47904 0,-0.47904 h 0.2129 l -0.0532,-1.59681 c 0,0 0.99345,0.16203 1.27745,-0.15968 0.35226,-0.39903 0,-1.59681 0,-1.59681 0,0 0.22533,-0.43582 0.42581,-0.42582 0.25186,0.0126 0.47905,0.5855 0.47905,0.5855 0.59939,1.06651 -1.0675,5.82245 -0.69283,6.17171 0.18216,0.1698 1.09048,-1.86224 1.45429,-2.87164 0.48116,-1.335 0.60193,-2.75963 0.9418,-4.15171 0.58242,1.597 -0.11403,3.14616 -0.85163,4.57753 -0.25974,0.49097 0.1001,0.38485 0.23182,0.24985 1.10952,-1.13714 1.33325,-1.60597 1.56161,-2.50255 0.22486,-0.88282 0.42616,-2.69956 8.7e-4,-3.8847 -0.65693,-1.83065 -2.09567,-3.25745 -3.7637,-4.02896 -1.37029,-0.6338 -3.11395,-0.75172 -4.5243,-0.21291 -2.40748,0.91975 -3.65547,3.70407 -5.51342,5.42028 -0.67952,0.62768 -1.741773,0.26991 -2.971853,-0.25726 -1.901082,-0.58428 -2.009331,-5.07431 -2.825481,-7.61147 -0.246064,-0.70352 -0.863689,-1.48737 -2.891356,-2.20143 z"
           id="path2"
           sodipodi:nodetypes="ccacaccsscaacscscscccccaacasccacccccccccccccaacacacacacaacccacacsaccsssaascccc" /></g><text
         xml:space="preserve"
         style="font-size:16px;font-family:Forte;-inkscape-font-specification:'Forte, Normal';text-align:center;text-anchor:middle;opacity:0.79;fill:#9c9c9c;fill-opacity:1;stroke:none;stroke-width:0.132;stroke-linecap:round;stroke-linejoin:round;stroke-dasharray:none;stroke-opacity:1;paint-order:stroke fill markers"
         x="104.51051"
         y="162.826"
         id="text2"><tspan
           sodipodi:role="line"
           id="tspan2"
           style="font-style:normal;font-variant:normal;font-weight:normal;font-stretch:normal;font-size:16px;font-family:'Vladimir Script';-inkscape-font-specification:'Vladimir Script, Normal';font-variant-ligatures:normal;font-variant-caps:normal;font-variant-numeric:normal;font-variant-east-asian:normal;fill:#b7b7b7;fill-opacity:1;stroke:none;stroke-width:0.132;stroke-opacity:1"
           x="104.51051"
           y="162.826">Los Changuitos</tspan></text><text
         xml:space="preserve"
         style="font-style:normal;font-variant:normal;font-weight:normal;font-stretch:normal;font-size:16px;font-family:Castellar;-inkscape-font-specification:'Castellar, Normal';font-variant-ligatures:normal;font-variant-caps:normal;font-variant-numeric:normal;font-variant-east-asian:normal;text-align:center;text-anchor:middle;opacity:0.79;mix-blend-mode:normal;fill:#c1c1c1;fill-opacity:1;stroke:none;stroke-width:0.6;stroke-linecap:round;stroke-linejoin:round;stroke-dasharray:none;paint-order:stroke fill markers;filter:url(#filter21)"
         x="104.65574"
         y="180.20631"
         id="text3"
         inkscape:label="text3"><tspan
           sodipodi:role="line"
           id="tspan3"
           style="font-style:normal;font-variant:normal;font-weight:normal;font-stretch:normal;font-size:16px;font-family:'Informal Roman';-inkscape-font-specification:'Informal Roman, Normal';font-variant-ligatures:normal;font-variant-caps:normal;font-variant-numeric:normal;font-variant-east-asian:normal;fill:#666666;fill-opacity:1;stroke:none;stroke-width:0.6;stroke-dasharray:none;stroke-opacity:1"
           x="104.65574"
           y="180.20631">AVICOLA</tspan></text></g><circle
       style="opacity:0.96;mix-blend-mode:normal;fill:url(#radialGradient12);fill-opacity:1;stroke:none;stroke-width:0.132;stroke-linecap:round;stroke-linejoin:round;stroke-dasharray:none;paint-order:stroke fill markers;filter:url(#filter22)"
       id="path4"
       cx="104.96789"
       cy="140.64325"
       r="52.369602"
       sodipodi:insensitive="true" /></g></svg>
