<?xml version="1.0" encoding="UTF-8" standalone="no"?>
<!-- Created with Inkscape (http://www.inkscape.org/) -->

<svg
   width="210mm"
   height="297mm"
   viewBox="0 0 210 297"
   version="1.1"
   id="svg1"
   xml:space="preserve"
   inkscape:version="1.3.1 (91b66b0783, 2023-11-16)"
   sodipodi:docname="LOGO INTEGRAL.svg"
   xmlns:inkscape="http://www.inkscape.org/namespaces/inkscape"
   xmlns:sodipodi="http://sodipodi.sourceforge.net/DTD/sodipodi-0.dtd"
   xmlns="http://www.w3.org/2000/svg"
   xmlns:svg="http://www.w3.org/2000/svg"><sodipodi:namedview
     id="namedview1"
     pagecolor="#ffffff"
     bordercolor="#000000"
     borderopacity="0.25"
     inkscape:showpageshadow="2"
     inkscape:pageopacity="0.0"
     inkscape:pagecheckerboard="0"
     inkscape:deskcolor="#d1d1d1"
     inkscape:document-units="mm"
     showguides="true"
     inkscape:zoom="0.64126689"
     inkscape:cx="428.83861"
     inkscape:cy="640.13909"
     inkscape:window-width="1366"
     inkscape:window-height="705"
     inkscape:window-x="-8"
     inkscape:window-y="-8"
     inkscape:window-maximized="1"
     inkscape:current-layer="layer2" /><defs
     id="defs1" /><g
     inkscape:label="Capa 1"
     inkscape:groupmode="layer"
     id="layer1" /><g
     inkscape:groupmode="layer"
     id="layer2"
     inkscape:label="logo"><path
       id="circle41"
       style="opacity:1;fill:#000080;stroke-width:0.300801"
       d="M 106.83121,83.486648 A 85.682357,83.665281 0 0 0 21.148689,167.1515 85.682357,83.665281 0 0 0 106.83121,250.81695 85.682357,83.665281 0 0 0 192.51315,167.1515 85.682357,83.665281 0 0 0 106.83121,83.486648 Z m 0.71168,9.734024 A 75.95112,74.626644 0 0 1 183.49393,167.847 75.95112,74.626644 0 0 1 107.54289,242.47392 75.95112,74.626644 0 0 1 31.591839,167.847 75.95112,74.626644 0 0 1 107.54289,93.220672 Z" /><path
       id="path42"
       style="opacity:1;fill:#000000;stroke-width:0.328709"
       d="m 107.06859,74.679776 a 93.040133,92.008644 0 0 0 -93.040317,92.008174 93.040133,92.008644 0 0 0 93.040317,92.00883 93.040133,92.008644 0 0 0 93.03968,-92.00883 93.040133,92.008644 0 0 0 -93.03968,-92.008174 z m 0.77278,10.704735 a 82.473248,82.068648 0 0 1 82.47316,82.068309 82.473248,82.068648 0 0 1 -82.47316,82.06894 82.473248,82.068648 0 0 1 -82.473171,-82.06894 82.473248,82.068648 0 0 1 82.473171,-82.068309 z" /><path
       id="path1"
       style="opacity:1;fill:#000000;stroke-width:0.264583"
       d="m 106.38443,128.33303 c -2.58983,0.45796 -5.23468,0.95524 -9.157888,4.33384 -2.13414,2.88959 -4.16996,5.93135 -3.61012,12.99662 l -5.5702,-0.10284 c -3.9925,0.47366 -4.92585,1.73402 -5.15731,2.78485 l -10.417964,45.48869 c -0.0205,1.84414 0.01704,3.66277 2.888196,4.2292 l 65.499356,-0.2067 c 1.401,-0.27273 3.00672,-0.0433 1.95958,-3.40393 l -10.31462,-44.56007 c -0.85901,-4.76136 -1.73359,-4.04229 -3.30109,-4.2292 l -18.56631,-0.20619 c -2.92878,0.44928 -3.46717,1.95335 -4.12636,3.40393 l 0.2067,13.51235 c -1.47823,-0.65251 -2.23079,1.01879 -4.95163,-3.61011 -6.011678,-4.59865 -13.450158,-2.38162 -14.750008,2.88819 l -4.02301,13.92525 c -2.378808,7.49664 -1.539032,11.92769 1.85673,13.92473 7.00548,1.67697 8.66314,-0.14442 11.75898,-3.8163 7.501218,-9.44057 9.040028,-7.89759 11.552778,-8.14886 5.34194,0.43389 9.63999,7.21647 13.61571,11.86232 2.73983,2.18101 10.55894,2.49306 11.55278,-4.43538 -0.1509,-9.59245 -3.08339,-17.71736 -6.70502,-25.47804 -0.79207,-2.4399 -3.23366,-2.92066 -6.43371,-3.12022 -3.94695,0.10593 -5.58024,1.35235 -7.07864,3.42977 -1.26696,1.10806 -2.14486,2.79975 -4.43539,2.37246 l 0.20619,-12.79043 0.92863,-1.23765 h 18.36012 c 0.61666,0.0744 1.22454,0.17084 1.65054,0.72192 l 10.21178,46.72634 c 0,0 -2.6e-4,0.10305 -64.05552,0.20619 -1.142032,-0.46464 -0.762727,-1.53782 -0.979785,-2.37246 l 5.363497,-23.26008 4.48706,-19.54661 c -0.1102,-1.44077 0.8981,-2.04235 1.85674,-2.68149 l 7.52977,0.10283 c 0.78445,-0.10383 1.51353,-0.11846 1.57303,-0.87643 0.64241,-4.12673 -1.64621,-8.44988 3.99718,-13.66738 5.859068,-4.42261 11.175308,-2.7554 14.543808,-0.72192 2.03448,1.52893 3.99604,2.20624 4.99401,10.49703 l 2.22674,-0.18241 c -0.47281,-6.38634 -2.15449,-8.11492 -4.2292,-10.83035 -2.83897,-2.52276 -5.95323,-4.27262 -9.8764,-3.99411 -0.29236,-0.0227 -0.7593,0.016 -1.07973,0.0727 z m 13.70583,30.01289 c 0.76949,0.0248 1.66029,0.16392 2.6138,0.46922 l 1.96008,1.59887 c 1.29205,2.61538 2.49805,5.29502 3.40393,8.20002 l 2.21744,8.20053 0.87695,5.77639 c -0.0329,10.28444 -8.54895,5.96599 -11.39776,0.7736 -2.8448,-5.35747 -7.02063,-8.26403 -12.12019,-7.89099 -5.45973,-0.35458 -7.860998,1.46052 -10.830858,5.87922 -3.38113,5.72209 -6.36411,8.05845 -9.9534,7.1174 -3.29172,-1.87242 -3.00262,-5.89323 -2.47582,-10.05675 l 1.85673,-7.22075 c 1.00683,-4.23763 2.67741,-9.74056 4.93872,-11.21275 2.06698,-2.1655 7.06037,-1.89054 8.831508,0.27905 0.78901,1.57171 1.64137,3.10316 3.76514,3.81682 1.78866,0.58604 3.23291,0.48303 4.74493,0.51573 2.01845,-0.11998 3.07296,-0.50302 3.97082,-0.92862 0.65983,-0.71213 1.14998,-0.53759 2.3213,-2.4753 1.8178,-2.34841 2.02797,-1.93234 3.39101,-2.62413 0.46841,-0.15287 1.11619,-0.24231 1.88567,-0.21756 z"
       sodipodi:nodetypes="ccccccccccccccccccccccccccccccccccccccccccccsccccccccccccccccccccc" /><path
       style="opacity:1;fill:#d40000;stroke-width:0.695939"
       d="m 57.926166,157.00426 c 0.24105,-0.58787 1.15625,-0.76932 1.62792,0 l 0.0574,10.66527 c 1.7935,0.88728 3.29003,0.33082 3.85251,-0.42763 0.80761,-0.54723 1.3094,-2.6559 1.43906,-4.69842 0.1102,-1.74172 -0.13902,-3.5267 -1.08057,-5.45481 -1.06552,-2.09666 -3.54644,-3.31544 -4.6404,-3.64534 -1.87599,-0.64296 -3.62793,-1.30604 -5.64442,-1.9988 l -0.0531,-0.005 -0.0301,26.23906 4.47292,1.94094 z"
       id="path2"
       sodipodi:nodetypes="cccccccccccc" /><path
       style="opacity:0.9;fill:#ffff00;stroke-width:0.695939"
       d="m 58.017606,179.62904 3.88911,-1.81853 -3.87268,-1.68737 c -0.005,1.38993 -0.0102,2.2866 -0.0153,3.5059 z"
       id="path3"
       sodipodi:nodetypes="ccccc" /><path
       style="opacity:0.9;fill:#008080;stroke-width:0.695939"
       d="m 61.890296,177.81927 6.40512,-3.09498 -4.15223,-1.74861 -6.11326,2.86332 -1e-4,0.27975 z"
       id="path4"
       sodipodi:nodetypes="cccccc" /><path
       style="opacity:0.9;fill:#000080;stroke-width:0.695939"
       d="m 58.069336,170.35772 3.90702,1.68156 2.1977,-1.03861 0.83722,-0.16084 c 1.06098,-0.0724 2.10161,0.20614 1.34884,0.96442 l -0.43024,0.35857 -1.77909,0.81603 4.13958,1.74338 c 0.80136,-0.31132 1.56471,-0.75544 2.15119,-1.81756 0.38245,-0.91842 0.11071,-1.7022 -0.46514,-2.42341 -0.16733,-0.21834 -0.34757,-0.37829 -0.63953,-0.53167 -0.18978,-0.16274 -0.63357,-0.36391 -1.02969,-0.55792 l -1.05172,-0.31995 -1.39537,-0.25957 -1.20931,-0.1112 c -0.42741,-0.0163 -0.98736,7e-4 -1.66282,0.0494 l -1.15117,0.23489 c -1.62668,0.3507 -2.81438,0.93697 -3.76747,1.37246 z"
       id="path5"
       sodipodi:nodetypes="cccccccccccccccccc" /><path
       style="opacity:0.9;fill:#008080;stroke-width:0.695939"
       d="m 58.038856,170.35432 3.92587,1.68496 -3.91865,1.79282 z"
       id="path6"
       sodipodi:nodetypes="cccc" /><path
       style="opacity:0.9;fill:#008080;stroke-width:0.695939"
       d="m 53.604176,172.42255 -1.98258,0.92735 1.9884,0.8655 z"
       id="path7" /><path
       style="opacity:0.9;fill:#ffff00;stroke-width:0.695939"
       d="m 53.602246,174.21719 -1.98979,-0.90928 -2.12135,1.01419 c -1.39212,0.51 -2.2997,-0.76061 -1.38955,-1.40761 l 1.19222,-0.55079 -3.83156,-1.66117 c -0.54955,0.32776 -1.14888,0.70656 -1.61157,1.31144 -0.34477,0.69392 -0.77481,1.27656 -0.49333,2.32563 0.14795,0.56571 0.45241,0.75652 0.77289,0.90925 0.77364,0.44566 1.52717,0.6783 2.39891,0.8939 0.82814,0.11311 1.46286,0.26744 2.09923,0.40517 0.54157,0.12043 1.14968,0.15379 1.86589,0.1348 0.86172,-3e-4 1.31339,-0.16409 1.84179,-0.29727 0.48893,-0.12477 0.8774,-0.30288 1.28267,-0.47211 z"
       id="path8"
       sodipodi:nodetypes="ccccccccccccccc" /><path
       style="opacity:0.9;fill:#008080;stroke-width:0.695939"
       d="m 53.618696,170.26539 -4.40713,2.09831 -3.71647,-1.64367 6.35321,-2.9355 1.77039,0.73228 z"
       id="path9"
       sodipodi:nodetypes="cccccc" /><path
       style="opacity:0.9;fill:#008080;stroke-width:0.695939"
       d="m 53.618696,167.0043 -1.75547,0.78685 1.75547,0.71256 c -0.0128,-0.42218 -0.0204,-0.88091 0,-1.49941 z"
       id="path10"
       sodipodi:nodetypes="cccc" /><path
       style="opacity:1;fill:#008000;stroke-width:0.264583"
       d="m 166.40867,175.8963 c 0.3535,-1.04462 -0.61242,-2.66204 -1.54723,-3.71336 -0.53892,-0.89267 -1.29769,-1.48841 -1.95983,-2.16612 -1.52595,-1.27563 -4.03527,-3.7708 -6.65309,-5.15743 -2.31112,1.81986 -4.75918,3.67396 -6.54994,5.36373 -1.56053,1.95982 -4.45616,3.91965 -2.83659,5.87947 6.07046,3.95796 13.40743,3.7254 19.54668,-0.20629 z"
       id="path11"
       sodipodi:nodetypes="ccccccc" /><path
       style="opacity:1;fill:#008000;stroke-width:0.264583"
       d="m 144.72166,174.2717 c 0.0347,-1.97344 0.66104,-3.65673 1.65846,-5.08007 l 2.59642,-3.76492 3.30076,-3.61021 -3.55863,-2.47556 c -1.76146,-0.76077 -2.64007,-0.76481 -3.04289,-0.36103 -0.95362,1.30655 -2.55602,2.6131 -2.73344,3.91965 -1.79329,3.59678 -1.09749,6.3481 -0.30945,7.94245 0.64927,1.07722 0.55984,1.82468 2.08877,3.42969 z"
       id="path12"
       sodipodi:nodetypes="ccccccccc" /><path
       style="opacity:1;fill:#008000;stroke-width:0.264583"
       d="m 168.10148,174.41738 1.73981,-2.49313 c 0.52255,-0.87216 0.59665,-1.63222 0.87524,-2.44339 0.31257,-1.18265 0.11242,-2.94728 -0.14587,-4.33976 -0.16748,-0.57839 -0.441,-1.71003 -1.07269,-2.96021 -0.87401,-1.23312 -1.86631,-2.48902 -3.12119,-3.53119 -2.99933,0.63099 -4.65293,2.25413 -5.79851,3.17276 2.22049,2.38261 4.21999,4.76523 5.6891,7.14784 1.25922,1.96395 2.21118,4.06064 1.83411,5.44708 z"
       id="path13"
       sodipodi:nodetypes="ccccccccc" /><path
       style="opacity:1;fill:#008000;stroke-width:0.264583"
       d="m 149.07968,156.99431 2.08877,0.0516 c 1.78439,0.52483 3.65622,0.98408 5.18322,1.70195 1.99541,-0.918 3.08688,-1.16506 5.44109,-1.62459 l 2.08876,-0.15473 -2.83659,-0.97991 c -2.61657,-0.81656 -7.48937,-0.62071 -8.81921,-0.0774 -1.09732,0.26376 -2.18392,0.54895 -3.14604,1.08311 z"
       id="path14"
       sodipodi:nodetypes="cccccccc" /><path
       id="path15"
       style="opacity:1;fill:#ff0000;stroke-width:0.313526"
       d="m 100.98812,99.205869 c -1.988598,0.398074 -3.461538,0.972951 -4.353048,2.334221 l -0.56309,0.91158 -0.15384,9.66401 c 0.68883,2.25693 2.20105,2.8524 3.68692,3.50107 l 1.075388,0.21859 6.60613,0.21911 V 99.242559 Z m 1.9846,1.303791 c 0.88213,-0.006 1.78315,0.015 2.40618,0.0181 l -0.22583,13.95434 c -1.92962,0.12244 -3.43838,0.0724 -4.96329,-0.28556 -1.409238,-0.49328 -2.143918,-1.10187 -2.325488,-2.08085 l 0.0508,-9.08058 c 0.0928,-0.49968 0.0607,-0.52473 0.19955,-0.77567 0.40878,-0.73898 0.85045,-1.11127 2.565818,-1.60404 0.54681,-0.10616 1.41014,-0.13959 2.29227,-0.14573 z"
       sodipodi:nodetypes="cccccccccscccccccss" /><ellipse
       style="opacity:1;fill:#ff0000;stroke-width:0.332451"
       id="path16"
       cx="101.82528"
       cy="104.16566"
       rx="2.1962807"
       ry="1.5681483" /><path
       id="path17"
       style="opacity:1;fill:#ff0000;stroke-width:0.313526"
       d="m 109.57014,99.134556 0.0932,16.764794 c 1.4441,0.0175 2.93942,0.035 4.40913,-0.0248 2.3716,-0.14613 4.91235,-1.65643 5.10817,-3.30046 0.46469,-2.68652 0.15895,-6.38103 0.23842,-9.57154 -0.22986,-2.45372 -3.81471,-3.739427 -4.77972,-3.765148 z m 4.71151,7.692034 c 1.21289,2.1e-4 2.19594,0.70237 2.19576,1.56838 -2.1e-4,0.86581 -0.98314,1.56766 -2.19576,1.56787 -1.2129,8e-5 -2.19628,-0.70186 -2.19649,-1.56787 -1.8e-4,-0.86621 0.98331,-1.56846 2.19649,-1.56838 z"
       sodipodi:nodetypes="ccccccccscsc" /><path
       style="opacity:1;fill:#ff0000;stroke-width:0.313526"
       d="m 90.342622,120.55071 0.0181,-2.06297 h 0.68799 l 1.24924,1.28936 0.10868,0.006 -1e-5,-1.30869 h 0.56125 v 2.07587 l -0.54315,0.0129 c -0.44508,-0.44561 -0.73756,-0.75147 -1.33976,-1.34093 h -0.14484 l -0.0181,1.34094 z"
       id="path18"
       sodipodi:nodetypes="ccccccccccccc" /><path
       style="opacity:1;fill:#ff0000;stroke-width:0.313526"
       d="m 95.194732,118.48774 v 2.07587 l 0.64272,-0.0125 -0.0271,-2.07586 z"
       id="path19"
       sodipodi:nodetypes="ccccc" /><path
       style="opacity:1;fill:#ff0000;stroke-width:0.313526"
       d="m 98.082472,120.53781 0.0181,-2.06297 h 0.68799 l 1.249248,1.28936 0.10868,0.006 -1e-5,-1.30869 h 0.56125 v 2.07587 l -0.54315,0.0129 c -0.445088,-0.44561 -0.737558,-0.75147 -1.339758,-1.34093 h -0.14484 l -0.0181,1.34094 z"
       id="path20"
       sodipodi:nodetypes="ccccccccccccc" /><path
       style="opacity:1;fill:#ff0000;stroke-width:0.313526"
       d="m 103.7493,120.55071 -0.0192,-1.61925 -0.94941,-0.0122 0.0181,-0.45127 h 2.46225 l -0.0271,0.45127 -0.86903,0.0129 -0.008,1.6246 z"
       id="path21"
       sodipodi:nodetypes="ccccccccc" /><path
       style="opacity:1;fill:#ff0000;stroke-width:0.313526"
       d="m 107.47853,120.54917 2.25317,0.0181 5e-5,-0.40115 h -1.70268 l 0.0126,-0.51056 1.47226,-0.009 0.0126,-0.30999 -1.48505,-0.009 v -0.51056 l 1.66428,0.009 -0.0126,-0.36468 -2.22756,0.0181 z"
       id="path22"
       sodipodi:nodetypes="ccccccccccccc" /><path
       style="opacity:1;fill:#ff0000;stroke-width:0.313526"
       d="m 112.16477,120.56516 0.0181,-2.06297 h 0.68799 l 1.24924,1.28936 0.10869,0.006 -2e-5,-1.30869 h 0.56125 v 2.07587 l -0.54315,0.0129 c -0.44508,-0.44561 -0.73756,-0.75147 -1.33975,-1.34093 h -0.14484 l -0.0181,1.34094 z"
       id="path23"
       sodipodi:nodetypes="ccccccccccccc" /><path
       id="path24"
       style="opacity:1;fill:#ff0000;stroke-width:0.313526"
       d="m 117.44539,118.46878 c -0.0667,2.9e-4 -0.13326,5.8e-4 -0.19882,0.002 l 0.0254,2.06085 1.51075,0.0362 c 0.51502,-0.0413 0.94469,-0.37732 1.1777,-0.74776 0.0719,-0.21058 0.0406,-0.39648 0.0126,-0.58343 -0.24378,-0.38325 -0.56723,-0.64628 -1.17843,-0.74724 -0.3936,-0.009 -0.88238,-0.0222 -1.34967,-0.0201 z m 1.24809,0.44855 c 0.36881,-0.008 0.72817,0.37815 0.65234,0.64699 0.0157,0.22965 -0.15621,0.41484 -0.55003,0.54725 h -0.87076 l -0.0254,-1.18546 z" /><path
       id="path25"
       style="opacity:1;fill:#ff0000;stroke-width:0.381099"
       d="m 123.48118,118.39746 a 1.613064,1.1122912 0 0 0 -1.61308,1.1126 1.613064,1.1122912 0 0 0 1.61308,1.11207 1.613064,1.1122912 0 0 0 1.61307,-1.11207 1.613064,1.1122912 0 0 0 -1.61307,-1.1126 z m -0.0385,0.46509 a 0.92175089,0.65643412 0 0 1 0.92155,0.65629 0.92175089,0.65643412 0 0 1 -0.92155,0.65629 0.92175089,0.65643412 0 0 1 -0.92155,-0.65629 0.92175089,0.65643412 0 0 1 0.92155,-0.65629 z" /><path
       style="opacity:1;fill:#ff0000;stroke-width:0.313526"
       d="m 94.343582,122.55494 0.42247,-0.66555 c -0.57924,-0.22537 -1.36108,-0.28584 -2.17636,-0.31911 -0.71091,0.0344 -1.43826,0.0196 -1.98433,0.54704 -0.407,0.37004 -0.4917,0.76912 -0.14084,1.21257 0.17562,0.2732 0.90282,0.4422 1.75387,0.54704 0.81041,0.0986 1.78302,0.0225 1.84351,0.60172 -0.0264,0.22267 -0.29428,0.38803 -0.93455,0.46498 -1.17256,0.0587 -1.90012,-0.10633 -2.49641,-0.33734 l -0.40967,0.60174 c 0.0991,0.11582 0.55814,0.25494 1.40824,0.41938 0.86364,0.1182 1.63649,0.0825 2.35558,-0.0365 0.607,-0.20074 1.07394,-0.43082 1.22901,-0.89348 0.0348,-0.43795 -0.0622,-0.84302 -0.70413,-1.11229 -0.6865,-0.19723 -1.37922,-0.36338 -2.09954,-0.39204 -0.60206,-0.0826 -1.26021,-0.27888 -1.01136,-0.6382 0.2236,-0.16112 0.54493,-0.25505 1.17778,-0.24616 0.62593,0.0205 1.24165,0.0581 1.76673,0.2462 z"
       id="path26"
       sodipodi:nodetypes="cccccccccccccccccc" /><path
       style="opacity:1;fill:#ff0000;stroke-width:0.313526"
       d="m 95.879832,121.65234 1.2162,-0.0182 0.97296,2.70779 h 0.15363 l 1.10097,-2.69867 h 0.998568 l 1.07538,2.6622 h 0.16642 l 0.97296,-2.65308 h 1.13939 l -1.52345,3.92037 h -1.30582 l -1.011358,-2.53457 h -0.11528 l -0.97295,2.58015 -1.36984,-0.0456 z"
       id="path27" /><path
       style="opacity:1;fill:#ff0000;stroke-width:0.313526"
       d="m 105.07174,121.65234 0.0126,3.93861 1.2546,0.009 0.0126,-3.9386 z"
       id="path28"
       sodipodi:nodetypes="ccccc" /><path
       style="opacity:1;fill:#ff0000;stroke-width:0.313526"
       d="m 107.68336,122.46377 1.74108,0.009 0.0254,3.08159 1.2162,0.009 0.0383,-3.08159 1.68988,0.009 v -0.85701 l -4.71118,-0.009 z"
       id="path29"
       sodipodi:nodetypes="ccccccccc" /><path
       style="opacity:1;fill:#ff0000;stroke-width:0.313526"
       d="m 118.61635,124.82511 -0.81934,-0.53792 c -0.57678,0.43245 -1.30874,0.62463 -2.24038,0.45586 -0.66877,-0.26846 -1.03044,-0.51555 -1.10096,-1.23081 0.0437,-0.62703 0.72152,-1.02252 1.88191,-1.12141 0.77242,0.0446 1.10687,0.3292 1.44664,0.61085 l 0.85774,-0.57438 c -0.27067,-0.26895 -0.98718,-0.73206 -1.54906,-0.83878 -0.58257,-0.10905 -1.41458,-0.10365 -2.06114,0.0821 -0.98426,0.40321 -1.59177,0.97703 -1.74108,1.64108 -0.15008,1.49688 1.26846,2.33915 3.23893,2.37958 0.96371,-0.039 1.56218,-0.41817 2.08674,-0.86616 z"
       id="path30"
       sodipodi:nodetypes="ccccccccccccc" /><path
       style="opacity:1;fill:#ff0000;stroke-width:0.313526"
       d="m 119.98034,125.57921 -0.0362,-3.94543 1.15872,0.0129 v 1.54723 l 2.51658,0.0129 0.0543,-1.56013 1.14062,-0.0129 v 3.94543 l -1.1542,-0.003 -0.004,-1.5569 -2.5528,-0.0258 v 1.59881 z"
       id="path32"
       sodipodi:nodetypes="ccccccccccccc" /><path
       style="opacity:1;fill:#ff0000;stroke-width:0.313526"
       d="m 125.50178,125.57332 0.006,-0.38736 -0.23912,8.4e-4 -0.004,-0.11093 0.57274,-0.005 -0.004,0.11604 h -0.23537 l -0.006,0.38642 z"
       id="path33"
       sodipodi:nodetypes="ccccccccc" /><path
       style="opacity:1;fill:#ff0000;stroke-width:0.313526"
       d="m 125.98396,125.57727 0.003,-0.50372 0.14723,-0.002 0.16642,0.22793 0.08,4.4e-4 0.16644,-0.22337 0.16322,-0.002 -0.01,0.49915 -0.077,0.002 10e-4,-0.40986 -0.0845,0.0904 c -0.0545,0.0701 -0.0974,0.11946 -0.16096,0.2082 h -0.0673 l -0.23683,-0.27808 -0.0126,0.38976 z"
       id="path34"
       sodipodi:nodetypes="cccccccccccccccc" /><path
       style="opacity:1;fill:#000080;stroke-width:0.264583"
       d="m 85.343622,174.22178 c 0.0549,0.44599 0.18905,0.89686 0.37869,1.47563 0.79437,2.42438 2.26259,5.44103 3.72349,5.77383 1.75823,1.17748 6.14101,-1.7262 8.00538,-4.25904 4.373828,-2.968 6.164378,-4.05019 10.502948,-4.44917 3.88035,0.53556 7.7597,1.06366 12.39931,7.29371 3.91292,3.4737 5.75146,2.4529 7.36665,0.94819 0.29524,-1.05155 1.24622,-2.74618 2.31945,-5.1592 0.8507,3.46046 2.1558,7.34148 0.25757,11.15828 -1.82299,3.37429 -5.68541,1.33339 -7.10824,0.22796 -3.0761,-1.71587 -6.39665,-9.87501 -11.64714,-11.36451 -3.15569,-0.54267 -7.33567,-0.63723 -10.21755,0.70085 -3.514418,2.85906 -4.623218,5.16465 -5.769358,7.13533 -2.11497,2.18865 -3.42395,5.76754 -6.56435,5.1056 -3.96932,0.005 -4.62604,-2.6051 -4.95972,-5.47029 -0.13823,-3.44915 0.50868,-6.23337 1.31287,-9.11717 z"
       id="path35"
       sodipodi:nodetypes="cscccccccccccccc" /><path
       style="opacity:1;fill:#0000ff;stroke-width:0.264583"
       d="m 130.06735,175.88606 c -0.74331,-3.69497 -4.33323,-15.96755 -6.21734,-16.10621 -1.35011,-1.92195 -5.52152,-2.24442 -8.31042,0.21915 -1.42502,2.75295 -4.24284,4.76371 -8.31483,4.52211 -3.71603,0.21992 -6.02232,-1.77232 -7.21193,-4.21785 -2.496108,-3.18364 -7.230468,-1.77963 -8.873298,-0.39856 -1.58111,1.54601 -1.82174,2.32749 -2.36993,3.30324 -0.88872,1.5819 -1.27496,2.96211 -1.59004,4.5224 -0.7883,2.57727 -1.40472,4.51802 -1.82343,6.61591 1.06366,4.07932 2.19622,8.85338 7.42708,7.02333 3.00941,-1.9142 6.21284,-5.54264 8.679518,-6.71021 3.59559,-1.70928 7.59431,-2.51624 12.89217,-0.0729 3.17207,1.65402 7.46576,8.91669 11.32295,7.73133 2.73504,-0.50493 3.24609,-3.92502 4.3895,-6.43174 z"
       id="path36"
       sodipodi:nodetypes="ccccccsccccccc" /><ellipse
       style="opacity:1;fill:#000000;stroke-width:0.308278"
       id="path37"
       cx="119.53289"
       cy="174.78705"
       rx="1.8781312"
       ry="1.6957883" /><ellipse
       style="opacity:1;fill:#000000;stroke-width:0.308278"
       id="ellipse37"
       cx="123.50796"
       cy="170.81198"
       rx="1.8781312"
       ry="1.6957883" /><ellipse
       style="opacity:1;fill:#000000;stroke-width:0.308278"
       id="ellipse38"
       cx="119.45995"
       cy="166.87338"
       rx="1.8781312"
       ry="1.6957883" /><ellipse
       style="opacity:1;fill:#000000;stroke-width:0.308278"
       id="ellipse39"
       cx="115.52135"
       cy="170.81198"
       rx="1.8781312"
       ry="1.6957883" /><path
       style="opacity:1;fill:#000000;stroke-width:0.264583"
       d="m 93.093192,172.50775 -0.073,3.191 c 0.23416,1.1683 2.5374,1.1526 2.77161,-0.0182 l -0.073,-3.15452 3.31863,0.0182 c 0.7775,-0.285 0.79241,-2.37793 0.0183,-2.68044 l -3.33687,-0.0183 0.0182,-3.3551 c -0.10098,-0.88195 -2.39483,-0.92321 -2.64397,0.0365 l 0.0183,3.40981 -3.26394,-0.0365 c -1.02569,0.48222 -0.89029,2.34576 -0.18241,2.62574 1.11906,0.0297 2.31498,0.0375 3.4281,-0.0182 z"
       id="path39"
       sodipodi:nodetypes="cccccccccccccc" /><text
       xml:space="preserve"
       style="font-style:normal;font-variant:normal;font-weight:900;font-stretch:normal;font-size:14.1111px;font-family:Arial;-inkscape-font-specification:'Arial Heavy';opacity:1;fill:#000000;fill-opacity:1;stroke-width:0.264999;stroke-dasharray:none"
       x="53.637314"
       y="212.07368"
       id="text56"><tspan
         sodipodi:role="line"
         style="font-style:normal;font-variant:normal;font-weight:900;font-stretch:normal;font-family:Arial;-inkscape-font-specification:'Arial Heavy';fill:#000000;stroke-width:0.265"
         x="53.637314"
         y="212.07368"
         id="tspan57">GAMER SHOP</tspan></text><text
       xml:space="preserve"
       style="font-style:normal;font-variant:normal;font-weight:900;font-stretch:normal;font-size:14.1111px;font-family:Arial;-inkscape-font-specification:'Arial Heavy';opacity:1;fill:#000000;fill-opacity:1;stroke-width:0.264999;stroke-dasharray:none"
       x="138.21922"
       y="233.52861"
       id="text58"><tspan
         sodipodi:role="line"
         id="tspan58"
         style="stroke-width:0.265"
         x="138.21922"
         y="233.52861" /></text></g></svg>
