<?xml version="1.0" encoding="UTF-8" standalone="no"?>
<!-- Created with Inkscape (http://www.inkscape.org/) -->

<svg
   width="210mm"
   height="297mm"
   viewBox="0 0 210 297"
   version="1.1"
   id="svg1"
   xml:space="preserve"
   inkscape:version="1.3.2 (091e20e, 2023-11-25, custom)"
   sodipodi:docname="logo_clothing.svg"
   inkscape:export-filename="logo_clothing.png"
   inkscape:export-xdpi="96"
   inkscape:export-ydpi="96"
   xmlns:inkscape="http://www.inkscape.org/namespaces/inkscape"
   xmlns:sodipodi="http://sodipodi.sourceforge.net/DTD/sodipodi-0.dtd"
   xmlns:xlink="http://www.w3.org/1999/xlink"
   xmlns="http://www.w3.org/2000/svg"
   xmlns:svg="http://www.w3.org/2000/svg"><sodipodi:namedview
     id="namedview1"
     pagecolor="#ffffff"
     bordercolor="#000000"
     borderopacity="0.25"
     inkscape:showpageshadow="2"
     inkscape:pageopacity="0.0"
     inkscape:pagecheckerboard="0"
     inkscape:deskcolor="#d1d1d1"
     inkscape:document-units="mm"
     inkscape:zoom="0.9983453"
     inkscape:cx="388.64309"
     inkscape:cy="370.61325"
     inkscape:window-width="1346"
     inkscape:window-height="1000"
     inkscape:window-x="0"
     inkscape:window-y="0"
     inkscape:window-maximized="0"
     inkscape:current-layer="g22" /><defs
     id="defs1"><rect
       x="139.379"
       y="308.70721"
       width="545.99708"
       height="129.01197"
       id="rect21" /><filter
       inkscape:collect="always"
       style="color-interpolation-filters:sRGB"
       id="filter1"
       x="-0.075587991"
       y="-0.42674298"
       width="1.1511757"
       height="1.8534854"><feGaussianBlur
         inkscape:collect="always"
         stdDeviation="0.00027314802"
         id="feGaussianBlur1" /></filter></defs><g
     inkscape:label="Layer 1"
     inkscape:groupmode="layer"
     id="layer1"><g
       id="g16"
       style="stroke:#000000;stroke-width:2.4;stroke-dasharray:none;stroke-opacity:1"
       transform="rotate(21.398481,172.72963,123.37292)"><path
         style="opacity:1;fill:#4898d4;fill-opacity:1;stroke:#000000;stroke-width:2.37729581;stroke-linecap:round;stroke-linejoin:round;stroke-dasharray:none;stroke-opacity:1;paint-order:stroke fill markers;filter:url(#filter1)"
         d="m 82.126975,126.57881 v 2.70382 l 15.734026,-0.28358 -0.08311,-2.50335 z"
         id="path1"
         sodipodi:nodetypes="ccccc"
         transform="matrix(1.0226967,0,0,0.99657314,-2.2259123,0.43825816)" /><path
         style="opacity:1;fill:#4898d4;fill-opacity:1;stroke:#000000;stroke-width:2.4;stroke-linecap:round;stroke-linejoin:round;stroke-dasharray:none;stroke-opacity:1;paint-order:stroke fill markers"
         d="m 81.88495,129.24107 c -2.796063,13.55337 -1.203565,27.10675 -1.290796,40.66012 h 7.744783 c 0.529773,-10.64365 0.693985,-23.48067 1.613497,-31.78588 1.649812,10.59529 0.985239,21.19059 1.452148,31.78588 h 7.744782 C 98.861968,156.35118 100.054,143.39294 97.858567,129.07972 Z"
         id="path2"
         sodipodi:nodetypes="cccccccc" /><path
         style="opacity:1;fill:#84b9e3;fill-opacity:1;stroke:#000000;stroke-width:2.4;stroke-linecap:round;stroke-linejoin:round;stroke-dasharray:none;stroke-opacity:1;paint-order:stroke fill markers"
         d="m 84.70857,129.24108 c -0.08133,2.12378 -0.994603,3.09292 -3.226992,3.06564 l 0.484049,-3.06565 z"
         id="path3"
         sodipodi:nodetypes="cccc" /><path
         style="opacity:1;fill:#84b9e3;fill-opacity:1;stroke:#000000;stroke-width:2.4;stroke-linecap:round;stroke-linejoin:round;stroke-dasharray:none;stroke-opacity:1;paint-order:stroke fill markers"
         d="m 95.076775,129.22066 c -0.15593,2.40457 1.25,2.83811 3.244244,2.66247 l -0.400939,-2.66248 z"
         id="path3-0"
         sodipodi:nodetypes="cccc" /><path
         style="opacity:1;fill:#6aa7cf;fill-opacity:1;stroke:#000000;stroke-width:2.4;stroke-linecap:round;stroke-linejoin:round;stroke-dasharray:none;stroke-opacity:1;paint-order:stroke fill markers"
         d="m 82.38296,166.78271 c 0,0.28521 0,0.57041 0,0.85561"
         id="path16" /><path
         style="opacity:1;fill:#4898d4;fill-opacity:1;stroke:#000000;stroke-width:2.4;stroke-linecap:round;stroke-linejoin:round;stroke-dasharray:none;stroke-opacity:1;paint-order:stroke fill markers"
         d="m 80.594154,168.04567 7.744784,-0.16135 0.16135,1.93619 -7.906134,0.16135 z"
         id="path4"
         sodipodi:nodetypes="ccccc" /><path
         style="opacity:1;fill:#4898d4;fill-opacity:1;stroke:#000000;stroke-width:2.4;stroke-linecap:round;stroke-linejoin:round;stroke-dasharray:none;stroke-opacity:1;paint-order:stroke fill markers"
         d="m 90.113783,129.64445 v 7.26074 c 2.892833,-0.13292 1.928954,-4.36701 2.040483,-7.28124 z"
         id="path5"
         sodipodi:nodetypes="cccc" /><path
         style="opacity:1;fill:#6aa7cf;fill-opacity:1;stroke:#000000;stroke-width:2.4;stroke-linecap:round;stroke-linejoin:round;stroke-dasharray:none;stroke-opacity:1;paint-order:stroke fill markers"
         d="m 82.505189,134.88071 c 0,0.52966 0,1.05932 0,1.58899"
         id="path7" /><path
         style="opacity:1;fill:#6aa7cf;fill-opacity:1;stroke:#000000;stroke-width:2.4;stroke-linecap:round;stroke-linejoin:round;stroke-dasharray:none;stroke-opacity:1;paint-order:stroke fill markers"
         d="m 82.505189,141.97004 c 0,0.44818 0,0.89635 0,1.34453"
         id="path9" /><path
         style="opacity:1;fill:#6aa7cf;fill-opacity:1;stroke:#000000;stroke-width:2.4;stroke-linecap:round;stroke-linejoin:round;stroke-dasharray:none;stroke-opacity:1;paint-order:stroke fill markers"
         d="m 82.627419,148.81492 c 0,0.40743 0,0.81486 0,1.2223"
         id="path11" /><path
         style="opacity:1;fill:#6aa7cf;fill-opacity:1;stroke:#000000;stroke-width:2.4;stroke-linecap:round;stroke-linejoin:round;stroke-dasharray:none;stroke-opacity:1;paint-order:stroke fill markers"
         d="m 82.38296,156.02648 c 0,0.61115 0,1.2223 0,1.83345"
         id="path13" /><path
         style="opacity:1;fill:#6aa7cf;fill-opacity:1;stroke:#000000;stroke-width:2.4;stroke-linecap:round;stroke-linejoin:round;stroke-dasharray:none;stroke-opacity:1;paint-order:stroke fill markers"
         d="m 96.818008,134.93367 c 0,0.52966 0,1.05932 0,1.58899"
         id="path7-9" /><path
         style="opacity:1;fill:#6aa7cf;fill-opacity:1;stroke:#000000;stroke-width:2.4;stroke-linecap:round;stroke-linejoin:round;stroke-dasharray:none;stroke-opacity:1;paint-order:stroke fill markers"
         d="m 96.818008,142.023 c 0,0.44818 0,0.89635 0,1.34453"
         id="path9-7" /><path
         style="opacity:1;fill:#6aa7cf;fill-opacity:1;stroke:#000000;stroke-width:2.4;stroke-linecap:round;stroke-linejoin:round;stroke-dasharray:none;stroke-opacity:1;paint-order:stroke fill markers"
         d="m 96.940238,148.86788 c 0,0.40743 0,0.81486 0,1.2223"
         id="path11-3" /><path
         style="opacity:1;fill:#6aa7cf;fill-opacity:1;stroke:#000000;stroke-width:2.4;stroke-linecap:round;stroke-linejoin:round;stroke-dasharray:none;stroke-opacity:1;paint-order:stroke fill markers"
         d="m 96.695779,156.07944 c 0,0.61115 0,1.2223 0,1.83345"
         id="path13-1" /><path
         style="opacity:1;fill:#6aa7cf;fill-opacity:1;stroke:#000000;stroke-width:2.4;stroke-linecap:round;stroke-linejoin:round;stroke-dasharray:none;stroke-opacity:1;paint-order:stroke fill markers"
         d="m 96.695779,166.83567 c 0,0.28521 0,0.57041 0,0.85561"
         id="path16-8" /><path
         style="opacity:1;fill:#6aa7cf;fill-opacity:1;stroke:#000000;stroke-width:2.4;stroke-linecap:round;stroke-linejoin:round;stroke-dasharray:none;stroke-opacity:1;paint-order:stroke fill markers"
         d="m 97.072916,163.21875 c 0,0.28521 0,0.57041 0,0.85561"
         id="path16-8-0" /><path
         style="opacity:1;fill:#6aa7cf;fill-opacity:1;stroke:#000000;stroke-width:2.4;stroke-linecap:round;stroke-linejoin:round;stroke-dasharray:none;stroke-opacity:1;paint-order:stroke fill markers"
         d="m 82.520832,163.74792 c 0,0.28521 0,0.57041 0,0.85561"
         id="path16-8-8" /><path
         style="opacity:1;fill:#4898d4;fill-opacity:1;stroke:#000000;stroke-width:2.4;stroke-linecap:round;stroke-linejoin:round;stroke-dasharray:none;stroke-opacity:1;paint-order:stroke fill markers"
         d="m 91.366558,167.90133 7.500329,-0.16135 v 1.77484 l -7.42209,0.16135 z"
         id="path4-6"
         sodipodi:nodetypes="ccccc" /></g><g
       id="g21"
       transform="matrix(0.78143557,-0.22240045,0.22240045,0.78143557,-9.9785395,31.316717)"><path
         style="opacity:1;fill:#ff0000;fill-opacity:1;stroke:#000000;stroke-width:4.5;stroke-linecap:round;stroke-linejoin:round;stroke-dasharray:none;stroke-opacity:1;paint-order:stroke fill markers"
         d="m 120.53241,169.7743 c 2.17136,0 20.84523,1.35608 24.98842,0.48997 2.4476,-0.51166 -2.52115,-29.32634 0.74531,-30.86805 l 3.66441,4.40972 0.45121,-0.2605 6.97041,-4.02437 -6.3473,-14.31607 -11.96303,-5.2693 c 0.19502,5.5996 -9.38582,12.30436 -12.13984,0.11732 -0.11016,0.11015 -10.14795,3.66239 -10.54672,4.06705 -4.0582,4.11814 -7.00007,17.07874 -8.85374,15.22507 l 8.44824,5.25025 3.9006,-6.13653 c 0.45333,0 -2.07802,24.57266 0.68201,31.31544 z"
         id="path17"
         sodipodi:nodetypes="sscccccccscccss" /><path
         style="opacity:0.81;fill:#800000;fill-opacity:1;stroke:none;stroke-width:0;stroke-linecap:round;stroke-linejoin:round;stroke-dasharray:none;stroke-opacity:1;paint-order:stroke fill markers"
         d="m 119.24882,165.27142 c 38.79608,16.78244 18.02395,-26.97285 25.34038,-26.08568 l 1.63951,0.1988 c -3.34336,2.94779 1.96932,31.7183 -0.52155,31.10402 -15.93873,0.79475 -19.29803,-0.74262 -26.08568,-0.74531 z"
         id="path19"
         sodipodi:nodetypes="cscccc" /><path
         style="opacity:0.81;fill:#800000;fill-opacity:1;stroke:none;stroke-width:0;stroke-linecap:round;stroke-linejoin:round;stroke-dasharray:none;stroke-opacity:1;paint-order:stroke fill markers"
         d="m 148.31573,124.05588 c 2.54922,7.50472 12.67102,17.38258 0.58351,18.48373 l 0.99402,1.29181 7.47801,-4.27303 -6.42202,-14.33465 z"
         id="path20"
         sodipodi:nodetypes="cccccc" /><path
         style="opacity:0.81;fill:#800000;fill-opacity:1;stroke:#000000;stroke-width:0;stroke-linecap:round;stroke-linejoin:round;stroke-dasharray:none;stroke-opacity:1;paint-order:stroke fill markers"
         d="m 110.67781,141.7943 c 2.39766,3.59648 6.16413,-5.85374 8.57101,-7.45305 1.88797,-1.2545 1.11796,3.35388 1.11796,3.35388 -1.24218,2.36013 -3.22966,5.09292 -4.47183,7.45305 z"
         id="path18"
         sodipodi:nodetypes="csccc" /></g><g
       id="g22"><path
         style="opacity:0;fill:#f9f9f9;fill-opacity:1;stroke:#000000;stroke-width:2.125;stroke-linecap:round;stroke-linejoin:round;stroke-dasharray:none;stroke-opacity:1;paint-order:stroke fill markers"
         d="m 37.182134,110.32731 c 72.446786,-43.050805 105.454956,-21.832001 140.194916,0"
         id="path21"
         sodipodi:nodetypes="cc" /><text
         xml:space="preserve"
         style="font-size:22.7271px;font-family:'Bauhaus 93';-inkscape-font-specification:'Bauhaus 93, ';fill:#f6be02;fill-opacity:0.823045;stroke:#000000;stroke-width:2.125;stroke-linecap:round;stroke-linejoin:round;stroke-dasharray:none;stroke-opacity:1;paint-order:stroke fill markers"
         id="text1"><textPath
           xlink:href="#path21"
           id="textPath21"><tspan
             id="tspan1"
             style="fill:#f6be02;fill-opacity:0.823045;stroke:#000000;stroke-width:2.125;stroke-linejoin:round;stroke-dasharray:none;stroke-opacity:1">Clothing Store</tspan></textPath></text></g><text
       xml:space="preserve"
       transform="scale(0.26458333)"
       id="text21"
       style="font-size:20.2097px;font-family:'Bauhaus 93';-inkscape-font-specification:'Bauhaus 93, ';white-space:pre;shape-inside:url(#rect21);display:inline;opacity:0.32;fill:#f9f9f9;fill-opacity:1;stroke:#000000;stroke-width:8.0315;stroke-linecap:round;stroke-linejoin:round;stroke-dasharray:none;stroke-opacity:1;paint-order:stroke fill markers" /></g></svg>
